<svg width="624" height="169" viewBox="0 0 624 169" fill="none" xmlns="http://www.w3.org/2000/svg">
<g clip-path="url(#clip0_493_298)">
<path d="M26.8739 36.3261V7.89859H15.863V2.79431H43.4462V7.89859H32.4354V36.3261H26.8739Z" fill="white"/>
<path d="M27.9938 35.2083V6.78082H16.9829V3.91199H42.3266V6.78082H31.1291V35.2083H27.9938Z" fill="white"/>
<path d="M64.3109 36.177V21.9073C64.4447 20.1564 63.8966 18.4214 62.7807 17.0639C62.1934 16.5153 61.4993 16.0933 60.7415 15.8241C59.9838 15.5548 59.1787 15.4442 58.3763 15.4991C57.0769 15.4822 55.7939 15.7895 54.6438 16.3932C53.6111 16.9408 52.7662 17.7842 52.2177 18.815C51.6177 20.0832 51.3236 21.474 51.3591 22.876V36.177H45.947V0.782349H51.2099V12.742C51.6119 12.4266 52.036 12.1402 52.4789 11.8851C54.4272 10.7599 56.6486 10.1927 58.8988 10.2458C60.8243 10.2077 62.731 10.6292 64.4603 11.4753C66.047 12.3203 67.3462 13.6172 68.1928 15.201C69.1455 17.1069 69.6073 19.2197 69.5365 21.3485V36.2515L64.3109 36.177Z" fill="white"/>
<path d="M58.9362 11.5126C60.6813 11.477 62.4093 11.8604 63.975 12.6303C65.4295 13.35 66.6185 14.5107 67.3716 15.9462C68.2484 17.6887 68.672 19.6234 68.6034 21.5721V35.2084H65.4307V21.9074C65.5217 20.8921 65.403 19.869 65.082 18.9013C64.761 17.9337 64.2445 17.042 63.5645 16.2816C62.8787 15.6234 62.0634 15.1147 61.1703 14.7876C60.2772 14.4605 59.3258 14.3222 58.3763 14.3814C56.8589 14.3436 55.3566 14.6897 54.0093 15.3874C52.7734 16.0363 51.7693 17.0516 51.1352 18.2935C50.4282 19.7155 50.0821 21.2892 50.1275 22.8761V35.2084H46.9548V2.04919H50.1275V18.1817L49.4929 16.9895C50.2596 15.2747 51.5716 13.8604 53.2254 12.9656C54.9649 11.981 56.9368 11.4793 58.9362 11.5126Z" fill="white"/>
<path d="M87.1914 36.5495C84.7592 36.5974 82.3557 36.02 80.2116 34.873C78.2244 33.7831 76.5726 32.173 75.434 30.2158C74.3327 28.1446 73.7568 25.8356 73.7568 23.4908C73.7568 21.146 74.3327 18.837 75.434 16.7658C76.4992 14.8289 78.0736 13.2187 79.9877 12.1086C81.9581 10.9986 84.1823 10.4154 86.4449 10.4154C88.7074 10.4154 90.9316 10.9986 92.9021 12.1086C94.7818 13.2094 96.3192 14.8086 97.3438 16.7286C98.4584 18.8133 99.0235 21.1467 98.9861 23.5094C98.9861 23.6957 98.9861 24.4781 98.9861 24.4781V25.5958H79.3904C79.5521 26.3711 79.8422 27.1141 80.2489 27.794C80.911 28.9778 81.9116 29.9377 83.123 30.5511C84.458 31.2457 85.9475 31.5918 87.4527 31.557C88.7292 31.5847 89.9984 31.3566 91.1852 30.8864C92.2494 30.4381 93.1948 29.7494 93.9472 28.8745L94.8057 27.8685L98.053 31.5943L97.4558 32.3022C96.2954 33.7062 94.8091 34.8061 93.126 35.5063C91.2424 36.2635 89.2208 36.6188 87.1914 36.5495ZM93.4246 20.9759C93.267 20.2921 93.029 19.6293 92.7155 19.0013C92.0977 17.9044 91.2116 16.9815 90.14 16.3187C88.9988 15.688 87.7118 15.3669 86.4075 15.3873C85.0985 15.3674 83.8086 15.7022 82.675 16.356C81.578 16.9869 80.6845 17.9177 80.0996 19.0385C79.7802 19.6509 79.5418 20.3022 79.3904 20.9759H93.4246Z" fill="white"/>
<path d="M87.1912 35.4319C84.9541 35.4933 82.7401 34.9665 80.7713 33.9043C78.9558 32.9113 77.446 31.4428 76.4043 29.657C75.3372 27.7724 74.7959 25.6366 74.8366 23.4722C74.804 21.318 75.3176 19.1905 76.3296 17.2875C77.2987 15.5322 78.7318 14.076 80.4727 13.0774C82.266 12.0652 84.2912 11.5333 86.3514 11.5333C88.4115 11.5333 90.4367 12.0652 92.2301 13.0774C93.9555 14.0547 95.3666 15.502 96.2985 17.2502C97.3077 19.1811 97.8207 21.3319 97.7915 23.5095C97.7915 23.5095 97.7915 23.8076 97.7915 23.9566C97.7915 24.1056 97.7915 24.2919 97.7915 24.4782H77.3374V22.131H95.9999L94.7309 23.0624C94.7531 21.4811 94.3811 19.9191 93.6484 18.517C92.9567 17.2318 91.9236 16.1619 90.6624 15.4246C89.3484 14.6648 87.8511 14.2782 86.3327 14.3069C84.8031 14.2827 83.2949 14.6687 81.9657 15.4246C80.6945 16.1657 79.6592 17.2507 78.9797 18.5543C78.2468 19.9697 77.875 21.5438 77.8972 23.1369V23.6213C77.8652 25.2766 78.2777 26.9104 79.0917 28.353C79.8762 29.7013 81.0282 30.7995 82.4136 31.5199C83.9044 32.3155 85.5758 32.7133 87.2659 32.6748C88.6364 32.6858 89.9949 32.4197 91.2596 31.8924C92.5037 31.3979 93.6063 30.6044 94.4696 29.5825L96.2612 31.6316C95.2078 32.8916 93.8626 33.8763 92.3421 34.5005C90.7062 35.1566 88.9537 35.4736 87.1912 35.4319Z" fill="white"/>
<path d="M113.841 36.3261L120.56 2.79431H123.732L117.611 33.2709H136.311L135.676 36.3261H113.841Z" fill="white" stroke="white" stroke-width="0.5" stroke-miterlimit="10"/>
<path d="M115.185 35.2083L121.456 3.91199H122.351L116.267 34.3886H134.93L134.743 35.2083H115.185Z" fill="white" stroke="white" stroke-width="0.5" stroke-miterlimit="10"/>
<path d="M149.337 36.4751C147.337 36.5589 145.355 36.0675 143.627 35.0594C142.162 34.1302 141.087 32.6995 140.603 31.0356C140.142 29.2264 140.142 27.3306 140.603 25.5214L143.515 10.991H146.687L143.701 25.894C143.427 26.8116 143.349 27.7763 143.471 28.7261C143.593 29.6758 143.913 30.5894 144.41 31.4081C145.056 32.1004 145.854 32.6326 146.742 32.9625C147.63 33.2924 148.582 33.4108 149.524 33.3083C151.905 33.4143 154.242 32.6455 156.093 31.1473C157.963 29.4444 159.2 27.1592 159.602 24.6645L162.327 10.9165H165.499L160.311 36.1771H157.138L157.661 33.5691C157.262 33.9002 156.838 34.1992 156.392 34.4632C154.268 35.7634 151.829 36.4591 149.337 36.4751Z" fill="white" stroke="white" stroke-width="0.5" stroke-miterlimit="10"/>
<path d="M149.337 35.3573C147.562 35.4445 145.799 35.0176 144.261 34.1278C143.019 33.3472 142.103 32.1421 141.686 30.7374C141.309 29.0945 141.309 27.3878 141.686 25.7449L144.41 12.1086H145.306L142.581 25.7449C142.277 26.8185 142.203 27.9441 142.363 29.0484C142.524 30.1526 142.916 31.2105 143.515 32.1532C144.257 32.9934 145.189 33.6446 146.235 34.0529C147.28 34.4611 148.407 34.6145 149.524 34.5004C152.223 34.6187 154.875 33.7585 156.989 32.0787C159.013 30.1882 160.33 27.6645 160.721 24.9252L163.26 12.1086H164.155L159.452 35.2083H158.557L159.9 28.5019L160.348 28.2784C159.413 30.5104 157.792 32.3887 155.72 33.6435C153.793 34.7953 151.583 35.3887 149.337 35.3573Z" fill="white" stroke="white" stroke-width="0.5" stroke-miterlimit="10"/>
<path d="M183.826 36.3261L177.704 25.8195L167.44 36.3261H163.11L176.062 23.0997L168.933 10.991H172.591L178.339 20.7897L187.857 10.991H192.149L179.944 23.5095L187.521 36.3261H183.826Z" fill="white" stroke="white" stroke-width="0.5" stroke-miterlimit="10"/>
<path d="M165.761 35.2084L177.63 23.0997V23.3605L170.986 12.1832H172.031L178.115 22.8761H177.817L188.193 12.1832H189.35L178.153 23.6585V23.1742L185.58 35.2084H184.498L177.817 23.7703H178.115L166.918 35.2084H165.761Z" fill="white" stroke="white" stroke-width="0.5" stroke-miterlimit="10"/>
<path d="M217.642 36.4751C214.807 36.5649 211.992 35.9773 209.431 34.7613C207.242 33.6883 205.423 31.9892 204.205 29.8805C202.981 27.6842 202.362 25.2028 202.414 22.6898C202.413 20.1459 202.868 17.6224 203.757 15.2383C204.58 12.8839 205.847 10.7086 207.49 8.83003C209.229 6.91809 211.353 5.39451 213.723 4.35913C216.379 3.18926 219.256 2.6047 222.159 2.64529C224.993 2.55553 227.809 3.14312 230.37 4.35913C232.566 5.41796 234.398 7.10366 235.633 9.20261C236.828 11.4088 237.432 13.8856 237.387 16.3933C237.386 18.9371 236.931 21.4603 236.043 23.8448C235.165 26.2139 233.834 28.3902 232.124 30.2531C230.385 32.165 228.261 33.6886 225.891 34.724C223.29 35.8631 220.483 36.459 217.642 36.4751ZM222.084 5.77492C219.742 5.74309 217.418 6.18674 215.253 7.07893C213.281 7.94251 211.513 9.21211 210.065 10.8047C208.613 12.3768 207.473 14.2101 206.706 16.207C205.925 18.2916 205.532 20.5014 205.549 22.7271C205.507 24.6863 205.969 26.6235 206.893 28.353C207.823 29.9636 209.214 31.2607 210.886 32.0787C213.022 33.0696 215.363 33.542 217.717 33.4572C220.063 33.4957 222.391 33.0386 224.547 32.116C226.522 31.2554 228.29 29.9853 229.736 28.3902C231.164 26.8067 232.289 24.9758 233.057 22.9879C233.804 20.884 234.158 18.6617 234.103 16.4306C234.15 14.4826 233.687 12.5561 232.759 10.8419C231.828 9.23134 230.438 7.93419 228.765 7.11619C226.671 6.16093 224.385 5.70188 222.084 5.77492Z" fill="white" stroke="white" stroke-width="0.5" stroke-miterlimit="10"/>
<path d="M217.642 35.3573C214.976 35.4477 212.326 34.8983 209.916 33.7553C207.923 32.7907 206.269 31.2446 205.176 29.3216C204.036 27.3007 203.468 25.0082 203.533 22.6898C203.517 20.2481 203.947 17.824 204.802 15.5363C205.654 13.3076 206.921 11.2598 208.535 9.50063C210.167 7.7077 212.165 6.28479 214.395 5.32779C216.855 4.26528 219.516 3.74427 222.196 3.80023C224.858 3.71658 227.503 4.25231 229.922 5.36505C231.92 6.33687 233.583 7.88026 234.7 9.79869C235.81 11.8299 236.364 14.1175 236.305 16.4305C236.327 18.8727 235.897 21.2979 235.036 23.584C234.184 25.8239 232.918 27.884 231.303 29.6569C229.671 31.4499 227.673 32.8728 225.443 33.8298C222.976 34.8708 220.32 35.3909 217.642 35.3573ZM217.642 34.5004C220.14 34.5316 222.617 34.0497 224.921 33.0846C227.028 32.1667 228.922 30.8219 230.482 29.1353C232.027 27.4573 233.231 25.4961 234.028 23.3604C234.889 21.152 235.319 18.8 235.297 16.4305C235.354 14.2855 234.839 12.164 233.804 10.283C232.755 8.49192 231.196 7.05248 229.325 6.14746C226.995 5.05322 224.433 4.54172 221.86 4.65716C219.361 4.60717 216.879 5.08983 214.582 6.07294C212.548 7.03905 210.732 8.40808 209.244 10.0968C207.647 11.7563 206.381 13.7033 205.512 15.8344C204.687 18.0517 204.27 20.3992 204.28 22.7643C204.223 24.9093 204.738 27.0309 205.773 28.9118C206.807 30.7112 208.353 32.1636 210.215 33.0846C212.566 34.1493 215.139 34.6348 217.717 34.5004H217.642Z" fill="white" stroke="white" stroke-width="0.5" stroke-miterlimit="10"/>
<path d="M239.253 36.1771L244.292 10.842H247.502L246.942 13.5245L247.875 12.7794C250.083 11.3191 252.694 10.5891 255.34 10.6929H256.498L255.863 13.8226H254.557C253.422 13.7775 252.29 13.9585 251.226 14.3551C250.162 14.7517 249.188 15.356 248.361 16.1325C246.535 18.0979 245.339 20.563 244.927 23.2115L242.314 36.1771H239.253Z" fill="white" stroke="white" stroke-width="0.5" stroke-miterlimit="10"/>
<path d="M240.597 35.2083L245.225 12.1087H246.121L244.703 19.2621L244.479 19.0385C245.312 16.9498 246.723 15.1407 248.547 13.8225C250.527 12.4905 252.881 11.8247 255.266 11.9224V12.8165H254.855C253.574 12.7736 252.298 12.9853 251.099 13.4395C249.901 13.8936 248.805 14.581 247.876 15.4618C245.881 17.5689 244.579 20.2337 244.143 23.0996L241.568 35.2083H240.597Z" fill="white" stroke="white" stroke-width="0.5" stroke-miterlimit="10"/>
<path d="M264.896 45.1561C262.814 45.1876 260.746 44.8078 258.812 44.0384C257.096 43.3753 255.571 42.3004 254.37 40.9088L253.586 40.0146L256.199 38.0027L256.908 38.8596C257.765 39.9222 258.884 40.7439 260.156 41.2441C261.687 41.7971 263.305 42.0746 264.933 42.0637C267.508 42.2049 270.052 41.4547 272.137 39.9401C274.069 38.136 275.299 35.7074 275.608 33.0847V32.265C275.04 32.7771 274.428 33.2384 273.779 33.6435C271.517 34.9617 268.934 35.632 266.314 35.5809C264.308 35.6237 262.319 35.2162 260.492 34.3887C258.923 33.5196 257.63 32.2289 256.759 30.663C255.839 29.0265 255.375 27.1739 255.415 25.2979C255.393 23.3275 255.735 21.3699 256.423 19.523C257.109 17.8043 258.123 16.2352 259.409 14.903C260.7 13.6094 262.252 12.6059 263.963 11.9597C265.771 11.2042 267.714 10.824 269.674 10.842C271.668 10.7945 273.647 11.2023 275.459 12.0342C276.987 12.7383 278.281 13.8628 279.191 15.2756L280.05 10.991H283.223L278.744 33.3455C278.306 36.7618 276.697 39.9214 274.19 42.2873C271.529 44.3102 268.236 45.3266 264.896 45.1561ZM269.636 13.8226C267.646 13.8072 265.688 14.3216 263.963 15.3129C262.3 16.2839 260.932 17.6876 260.006 19.3739C259.045 21.1858 258.557 23.2105 258.588 25.2606C258.515 26.2304 258.658 27.2043 259.006 28.1126C259.355 29.0208 259.9 29.8408 260.604 30.5139C262.325 31.8485 264.475 32.5108 266.65 32.3768C268.638 32.4145 270.599 31.9122 272.324 30.9238C273.888 29.9023 275.171 28.5061 276.056 26.8627C277.048 25.0474 277.549 23.006 277.512 20.9387C277.58 19.9661 277.431 18.9904 277.076 18.082C276.721 17.1736 276.169 16.3551 275.459 15.6854C273.805 14.3875 271.738 13.7263 269.636 13.8226Z" fill="white" stroke="white" stroke-width="0.5" stroke-miterlimit="10"/>
<path d="M264.896 44.0384C262.965 44.0772 261.048 43.7222 259.26 42.9952C257.704 42.4123 256.319 41.452 255.229 40.2009L256.012 39.5675C256.998 40.7745 258.285 41.7 259.745 42.25C261.397 42.8938 263.159 43.2102 264.933 43.1815C267.77 43.3487 270.575 42.5036 272.846 40.797C274.913 38.8168 276.232 36.1845 276.578 33.3455L278.034 25.894L279.042 23.2115V20.5289L280.684 12.1087H281.58L277.4 33.1592C276.996 36.3314 275.506 39.2668 273.182 41.4676C270.804 43.2612 267.873 44.1704 264.896 44.0384ZM266.538 34.4632C264.701 34.5026 262.877 34.1335 261.2 33.3828C259.778 32.6916 258.585 31.6048 257.767 30.2531C256.936 28.7901 256.523 27.1278 256.572 25.4469C256.551 23.6165 256.867 21.7978 257.505 20.0818C258.14 18.4999 259.078 17.0571 260.267 15.8345C261.443 14.5948 262.867 13.6171 264.448 12.9656C266.117 12.283 267.907 11.9409 269.711 11.9597C271.537 11.9118 273.35 12.2814 275.011 13.0402C276.417 13.7093 277.588 14.7872 278.37 16.1325C279.183 17.6279 279.583 19.3126 279.527 21.0133C279.608 23.3879 279.054 25.7413 277.922 27.8314C276.832 29.8854 275.188 31.5945 273.177 32.7662C271.165 33.938 268.866 34.5257 266.538 34.4632ZM266.538 33.6063C268.692 33.6591 270.818 33.1164 272.683 32.038C274.547 30.9597 276.076 29.3878 277.101 27.4961C278.202 25.5289 278.757 23.3035 278.706 21.0505C278.772 19.9227 278.589 18.7941 278.169 17.7447C277.75 16.6953 277.105 15.7506 276.28 14.9775C274.384 13.4287 271.969 12.6563 269.524 12.8166C267.336 12.7882 265.181 13.3549 263.291 14.4559C261.456 15.5238 259.947 17.0691 258.924 18.9268C257.86 20.907 257.32 23.1257 257.356 25.3724C257.285 26.503 257.462 27.6355 257.874 28.6908C258.287 29.7461 258.925 30.6989 259.745 31.4826C261.701 33.0245 264.164 33.7819 266.65 33.6063H266.538Z" fill="white" stroke="white" stroke-width="0.5" stroke-miterlimit="10"/>
<path d="M296.659 36.4751C294.668 36.5273 292.695 36.0924 290.911 35.2083C289.325 34.3633 288.025 33.0664 287.179 31.4826C286.257 29.7795 285.794 27.8666 285.835 25.9312C285.814 23.9124 286.155 21.9061 286.843 20.0073C287.505 18.2297 288.506 16.5974 289.791 15.2011C291.057 13.8213 292.595 12.7177 294.308 11.9597C296.112 11.1884 298.056 10.7953 300.019 10.8047C302.009 10.757 303.981 11.1917 305.767 12.0714C307.217 12.8035 308.432 13.9264 309.275 15.3128L310.171 10.9537H313.344L308.118 36.177H305.02L305.617 33.1592C305.13 33.5736 304.619 33.9593 304.087 34.3142C301.875 35.7418 299.293 36.4929 296.659 36.4751ZM299.72 14.1206C297.753 14.0892 295.82 14.6331 294.159 15.6854C292.471 16.6623 291.069 18.0622 290.09 19.7465C289.123 21.6632 288.636 23.7855 288.672 25.9312C288.596 26.9406 288.736 27.9545 289.083 28.9054C289.431 29.8563 289.978 30.7222 290.687 31.4453C292.341 32.8319 294.467 33.5262 296.622 33.3827C298.596 33.4197 300.54 32.8895 302.221 31.8552C303.824 30.799 305.113 29.332 305.953 27.6078C306.949 25.7003 307.45 23.5738 307.409 21.4231C307.481 20.4053 307.335 19.384 306.981 18.4268C306.627 17.4697 306.073 16.5987 305.356 15.8717C303.791 14.5255 301.786 13.7967 299.72 13.8225V14.1206Z" fill="white" stroke="white" stroke-width="0.5" stroke-miterlimit="10"/>
<path d="M296.659 35.3574C294.848 35.4119 293.052 35.015 291.434 34.2024C289.989 33.4905 288.793 32.3611 288 30.961C287.164 29.4324 286.752 27.7091 286.805 25.9685C286.781 24.0772 287.097 22.1969 287.739 20.4171C288.371 18.7873 289.295 17.2853 290.463 15.9835C291.611 14.7106 293.026 13.7057 294.606 13.0402C296.265 12.3146 298.058 11.9465 299.869 11.9597C301.676 11.9058 303.469 12.2893 305.095 13.0774C306.498 13.79 307.655 14.9061 308.417 16.2816C309.201 17.8266 309.586 19.5428 309.536 21.2741C309.607 23.7625 309.069 26.2307 307.969 28.4648C306.926 30.5158 305.354 32.2521 303.415 33.4945C301.39 34.7515 299.044 35.3983 296.659 35.3574ZM296.659 34.5005C298.843 34.5444 300.993 33.9625 302.855 32.8239C304.679 31.6685 306.161 30.0479 307.148 28.1294C308.254 26.0162 308.806 23.6578 308.753 21.2741C308.83 20.1038 308.657 18.9305 308.245 17.8321C307.833 16.7337 307.192 15.7352 306.364 14.903C304.498 13.3196 302.09 12.5185 299.645 12.6676C297.472 12.6502 295.337 13.2441 293.487 14.3814C291.663 15.5368 290.181 17.1575 289.194 19.0759C288.125 21.1479 287.587 23.4519 287.627 25.7822C287.515 27.0067 287.678 28.2407 288.104 29.3944C288.53 30.548 289.209 31.5924 290.09 32.4513C291.971 33.9656 294.363 34.6994 296.771 34.5005H296.659ZM306.214 35.2084L307.819 27.1608L308.976 24.0311V20.6034L310.656 12.1087H311.552L306.961 35.2084H306.214Z" fill="white" stroke="white" stroke-width="0.5" stroke-miterlimit="10"/>
<path d="M335.104 36.1771L338.09 21.2741C338.367 20.3488 338.443 19.3754 338.314 18.4183C338.186 17.4613 337.855 16.5425 337.344 15.7227C336.687 15.0245 335.876 14.4891 334.975 14.1592C334.074 13.8293 333.109 13.714 332.156 13.8226C329.747 13.726 327.386 14.5073 325.512 16.0208C323.642 17.7237 322.405 20.0089 322.003 22.5036L319.278 36.1771H316.218L321.294 10.842H324.467L323.944 13.45C324.355 13.1183 324.792 12.8193 325.25 12.5558C327.414 11.3018 329.878 10.6579 332.38 10.693C334.392 10.6083 336.386 11.0995 338.128 12.1087C339.602 13.0363 340.689 14.4659 341.188 16.1325C341.65 17.9417 341.65 19.8375 341.188 21.6467L338.277 36.1771H335.104Z" fill="white" stroke="white" stroke-width="0.5" stroke-miterlimit="10"/>
<path d="M332.267 11.9597C334.066 11.8769 335.852 12.3031 337.418 13.1892C338.663 13.984 339.578 15.2015 339.994 16.6169C340.411 18.2424 340.411 19.9466 339.994 21.5721L337.232 35.2084H336.336L339.098 21.5721C339.397 20.496 339.465 19.3689 339.298 18.2646C339.131 17.1603 338.732 16.1037 338.127 15.1639C337.372 14.3201 336.426 13.6673 335.369 13.2593C334.311 12.8512 333.171 12.6995 332.044 12.8166C329.339 12.7089 326.687 13.5824 324.579 15.2756C322.55 17.1472 321.231 19.6612 320.846 22.3918L318.308 35.2084H317.412L322.003 12.1087H322.899L321.555 18.8151L321.107 19.0386C322.065 16.8711 323.668 15.0501 325.698 13.8226C327.679 12.6211 329.949 11.9774 332.267 11.9597Z" fill="white" stroke="white" stroke-width="0.5" stroke-miterlimit="10"/>
<path d="M346.078 36.1771L351.117 10.842H354.289L349.213 36.1771H346.078ZM353.916 6.66915C353.331 6.66676 352.77 6.43998 352.348 6.03577C352.145 5.83645 351.985 5.59856 351.876 5.33618C351.767 5.0738 351.712 4.79225 351.714 4.50822C351.719 3.87774 351.974 3.27492 352.423 2.83163C352.869 2.38666 353.472 2.13275 354.102 2.12374C354.393 2.11869 354.682 2.17211 354.951 2.28079C355.221 2.38947 355.465 2.5512 355.671 2.75634C355.876 2.96147 356.038 3.20581 356.147 3.47478C356.256 3.74376 356.31 4.03187 356.305 4.32193C356.286 4.94482 356.027 5.53637 355.582 5.97354C355.137 6.41072 354.54 6.65986 353.916 6.66915Z" fill="white" stroke="white" stroke-width="0.5" stroke-miterlimit="10"/>
<path d="M347.384 35.2083L352.013 12.1086H352.908L348.28 35.2083H347.384ZM353.879 5.70035C353.74 5.71216 353.6 5.69136 353.47 5.63961C353.341 5.58786 353.225 5.5066 353.132 5.40229C353.027 5.30846 352.943 5.19365 352.885 5.0653C352.827 4.93694 352.797 4.7979 352.796 4.65715C352.802 4.4883 352.841 4.32221 352.911 4.16865C352.982 4.01509 353.082 3.87715 353.207 3.76296C353.313 3.64068 353.445 3.54373 353.594 3.47925C353.742 3.41476 353.904 3.3844 354.065 3.39039C354.203 3.38842 354.34 3.41373 354.469 3.46489C354.597 3.51605 354.713 3.59203 354.812 3.68845C354.918 3.78936 355.003 3.91074 355.06 4.04524C355.118 4.17973 355.148 4.32453 355.148 4.47085C355.137 4.79354 355.004 5.10005 354.775 5.32777C354.658 5.44719 354.519 5.54179 354.365 5.60584C354.211 5.66988 354.046 5.70204 353.879 5.70035Z" fill="white" stroke="white" stroke-width="0.5" stroke-miterlimit="10"/>
<path d="M368.025 36.4751C365.986 36.5263 363.965 36.0921 362.127 35.2083C360.474 34.3896 359.108 33.0907 358.208 31.4826C357.273 29.783 356.797 27.8699 356.827 25.9312C356.784 23.2321 357.426 20.5661 358.694 18.1816C359.85 15.9034 361.625 13.9962 363.817 12.6784C366.008 11.3606 368.527 10.6854 371.085 10.7301C372.987 10.6884 374.874 11.0703 376.609 11.8479C378.175 12.547 379.481 13.7201 380.342 15.201L380.827 16.0207L378.438 17.9581L377.767 16.8776C377.143 15.8759 376.233 15.0842 375.154 14.6049C373.856 14.0573 372.457 13.7907 371.048 13.8225C369.033 13.7857 367.051 14.329 365.337 15.3873C363.749 16.4607 362.464 17.9232 361.605 19.6347C360.609 21.5422 360.108 23.6687 360.149 25.8194C360.078 26.8347 360.227 27.8534 360.588 28.8053C360.949 29.7573 361.512 30.6198 362.239 31.3335C363.954 32.742 366.146 33.436 368.361 33.2709C369.808 33.2869 371.243 33.008 372.578 32.4513C373.792 31.9581 374.868 31.1782 375.714 30.1785L376.535 29.1726L378.55 31.5198L377.953 32.2277C376.834 33.6165 375.366 34.6837 373.698 35.3201C371.906 36.0894 369.975 36.4825 368.025 36.4751Z" fill="white" stroke="white" stroke-width="0.5" stroke-miterlimit="10"/>
<path d="M368.025 35.3573C366.166 35.4149 364.321 35.0185 362.65 34.2024C361.18 33.5128 359.966 32.3787 359.179 30.961C358.332 29.4352 357.907 27.7122 357.947 25.9685C357.913 23.4546 358.503 20.9715 359.664 18.7405C360.75 16.6642 362.394 14.9304 364.411 13.7329C366.428 12.5354 368.739 11.9215 371.085 11.9596C372.819 11.9175 374.54 12.2611 376.124 12.9656C377.494 13.5564 378.634 14.5765 379.372 15.8717L378.7 16.3933C377.97 15.2003 376.888 14.2629 375.602 13.7107C374.168 13.0818 372.613 12.7764 371.048 12.8166C368.826 12.7892 366.641 13.3828 364.74 14.5304C362.906 15.6849 361.412 17.3049 360.41 19.2248C359.341 21.2969 358.803 23.6009 358.843 25.9312C358.778 27.0979 358.961 28.265 359.379 29.3564C359.797 30.4478 360.441 31.4389 361.269 32.265C363.198 33.8669 365.67 34.6672 368.174 34.5004C369.773 34.5132 371.359 34.2093 372.84 33.6062C374.265 33.0458 375.542 32.1663 376.572 31.0355L377.095 31.6316C376.103 32.8499 374.819 33.7982 373.362 34.3886C371.667 35.0684 369.851 35.398 368.025 35.3573Z" fill="white" stroke="white" stroke-width="0.5" stroke-miterlimit="10"/>
<path d="M393.63 36.1771L400.348 2.64531H413.673C416.222 2.52331 418.751 3.14472 420.952 4.43367C421.899 5.03539 422.67 5.8758 423.188 6.8701C423.705 7.86439 423.951 8.97739 423.9 10.0968C423.955 12.1663 423.354 14.2002 422.184 15.909C421.202 17.211 419.922 18.2588 418.451 18.9641L419.571 19.5975C420.52 20.255 421.282 21.1456 421.786 22.1833C422.289 23.221 422.516 24.3707 422.445 25.5214C422.487 27.5892 421.887 29.6194 420.728 31.3336C419.493 33.0365 417.778 34.3336 415.801 35.0593C413.41 35.9223 410.877 36.3268 408.336 36.2516L393.63 36.1771ZM408.56 33.1219C411.431 33.2958 414.286 32.5802 416.734 31.0728C417.596 30.4534 418.288 29.6266 418.745 28.6691C419.201 27.7117 419.409 26.6546 419.347 25.5959C419.434 24.8811 419.323 24.1561 419.027 23.4994C418.731 22.8427 418.261 22.2793 417.667 21.8702C415.811 20.9281 413.735 20.5034 411.658 20.6407H399.788L397.325 33.0474L408.56 33.1219ZM410.762 17.6228C412.541 17.6503 414.311 17.3601 415.988 16.7659C417.35 16.2833 418.543 15.4161 419.421 14.2696C420.274 13.0909 420.708 11.6615 420.653 10.2086C420.679 9.57331 420.542 8.94194 420.255 8.37457C419.967 7.80719 419.539 7.32269 419.011 6.96718C417.347 6.05289 415.458 5.62668 413.561 5.73768H402.812L400.423 17.6228H410.762Z" fill="white" stroke="white" stroke-width="0.5" stroke-miterlimit="10"/>
<path d="M395.011 35.2083L401.281 3.91198H413.673C415.996 3.79931 418.302 4.35541 420.317 5.51405C421.113 6.01151 421.762 6.71265 422.195 7.5447C422.628 8.37675 422.83 9.30938 422.781 10.2458C422.833 12.0732 422.311 13.8711 421.288 15.3873C420.259 16.7816 418.864 17.8648 417.256 18.5169C415.458 19.2032 413.546 19.5445 411.62 19.5229L412.479 19.0385C414.795 18.9182 417.095 19.4889 419.085 20.6779C419.883 21.2315 420.523 21.983 420.942 22.8583C421.361 23.7337 421.544 24.7028 421.474 25.6704C421.516 27.5134 420.981 29.3236 419.944 30.8491C418.835 32.3463 417.3 33.4758 415.54 34.0906C413.276 34.8889 410.885 35.2677 408.485 35.2083H395.011ZM396.093 34.3886H408.672C411.769 34.5754 414.848 33.794 417.48 32.1532C418.519 31.4446 419.361 30.4856 419.929 29.3653C420.496 28.2449 420.771 26.9996 420.728 25.7449C420.804 24.849 420.641 23.949 420.254 23.1371C419.867 22.3252 419.27 21.6307 418.526 21.1249C416.484 20.0924 414.204 19.6168 411.919 19.7464H398.93V18.8895H410.874C412.794 18.9262 414.704 18.6105 416.51 17.9581C418.063 17.393 419.422 16.3978 420.429 15.0892C421.44 13.7236 421.954 12.0543 421.885 10.3575C421.927 9.53286 421.749 8.71183 421.368 7.97858C420.988 7.24532 420.419 6.62621 419.72 6.18469C417.883 5.14138 415.783 4.64976 413.673 4.7689H402.065L396.093 34.3886Z" fill="white" stroke="white" stroke-width="0.5" stroke-miterlimit="10"/>
<path d="M436.927 36.4751C434.936 36.5228 432.964 36.0881 431.179 35.2083C429.606 34.3442 428.312 33.0522 427.446 31.4826C426.524 29.7795 426.061 27.8666 426.103 25.9312C426.075 23.9085 426.43 21.8988 427.148 20.0073C427.797 18.2319 428.785 16.5994 430.059 15.201C431.331 13.8291 432.867 12.7267 434.575 11.9596C436.381 11.1914 438.324 10.7984 440.286 10.8047C442.288 10.7627 444.271 11.1969 446.072 12.0714C447.507 12.8237 448.718 13.9421 449.58 15.3128L450.439 10.9537H453.611L448.423 36.177H445.25L445.848 33.1592C445.348 33.5737 444.824 33.9593 444.28 34.3141C442.092 35.7338 439.536 36.4848 436.927 36.4751ZM440.025 14.1206C438.046 14.0884 436.101 14.6321 434.426 15.6854C432.77 16.7341 431.418 18.1987 430.507 19.9327C429.54 21.8494 429.053 23.9717 429.089 26.1175C429.02 27.1293 429.167 28.1443 429.521 29.0949C429.875 30.0456 430.427 30.9103 431.142 31.6316C432.791 33.0252 434.921 33.7204 437.076 33.569C439.049 33.5956 440.99 33.0662 442.675 32.0414C444.263 30.9681 445.548 29.5056 446.407 27.7941C447.481 25.7906 448.021 23.5455 447.975 21.274C448.036 20.2604 447.888 19.2452 447.542 18.2905C447.195 17.3359 446.657 16.4621 445.96 15.7227C444.291 14.3663 442.172 13.6877 440.025 13.8225V14.1206Z" fill="white" stroke="white" stroke-width="0.5" stroke-miterlimit="10"/>
<path d="M436.927 35.3574C435.117 35.3997 433.324 35.0034 431.701 34.2024C430.263 33.4812 429.069 32.354 428.267 30.961C427.45 29.4256 427.039 27.7071 427.073 25.9685C427.04 24.0733 427.369 22.1892 428.043 20.4172C428.649 18.7822 429.561 17.2774 430.731 15.9835C431.879 14.7106 433.293 13.7057 434.874 13.0402C436.533 12.3146 438.326 11.9465 440.137 11.9597C441.956 11.8998 443.762 12.2834 445.4 13.0774C446.785 13.8015 447.927 14.9156 448.684 16.2816C449.481 17.8233 449.879 19.5396 449.841 21.2741C449.881 23.7637 449.332 26.2276 448.236 28.4648C447.206 30.5243 445.631 32.2635 443.683 33.4945C441.659 34.7554 439.312 35.4026 436.927 35.3574ZM436.927 34.5005C439.109 34.5341 441.256 33.953 443.123 32.8239C444.926 31.6553 446.393 30.0372 447.378 28.1295C448.447 26.0574 448.985 23.7534 448.945 21.4231C449.023 20.2528 448.85 19.0795 448.438 17.9811C448.026 16.8827 447.385 15.8843 446.557 15.0521C444.704 13.4709 442.309 12.6695 439.876 12.8166C437.69 12.7942 435.542 13.3883 433.68 14.5305C431.856 15.6859 430.374 17.3065 429.387 19.2249C428.318 21.297 427.78 23.6009 427.82 25.9313C427.748 27.0954 427.924 28.2616 428.335 29.3532C428.747 30.4448 429.385 31.4371 430.208 32.265C432.112 33.8857 434.581 34.6892 437.076 34.5005H436.927ZM446.445 35.2084L448.05 27.1608L449.244 24.0311V20.6034L450.961 12.1087H451.857L447.229 35.2084H446.445Z" fill="white" stroke="white" stroke-width="0.5" stroke-miterlimit="10"/>
<path d="M469.698 36.475C467.711 36.5299 465.74 36.1082 463.95 35.2455C462.498 34.5 461.282 33.3645 460.442 31.9669L459.583 36.177H456.373L463.465 0.782349H466.637L464.025 13.9342C464.983 13.0901 466.065 12.3989 467.235 11.8851C469.052 11.1254 471.014 10.7694 472.983 10.8419C474.972 10.8029 476.943 11.2372 478.731 12.1086C480.306 12.9695 481.601 14.2623 482.463 15.8344C483.398 17.5339 483.874 19.447 483.844 21.3857C483.85 23.4187 483.496 25.4367 482.799 27.3469C482.132 29.1216 481.131 30.7529 479.851 32.1532C478.602 33.5421 477.059 34.6365 475.334 35.3573C473.556 36.1234 471.635 36.5044 469.698 36.475ZM472.796 14.1205C470.824 14.0999 468.885 14.6289 467.197 15.6481C465.603 16.7137 464.316 18.1782 463.465 19.8954C462.464 21.8146 461.964 23.9544 462.009 26.1174C461.94 27.1293 462.088 28.1442 462.442 29.0949C462.795 30.0455 463.348 30.9102 464.062 31.6316C465.711 33.0251 467.841 33.7203 469.997 33.5689C471.97 33.5997 473.912 33.0699 475.596 32.0414C477.199 30.9852 478.488 29.5182 479.328 27.794C480.324 25.8865 480.825 23.76 480.784 21.6093C480.856 20.5916 480.71 19.5702 480.356 18.613C480.002 17.6559 479.448 16.7849 478.731 16.0579C477.164 14.6183 475.112 13.8202 472.983 13.8225L472.796 14.1205Z" fill="white" stroke="white" stroke-width="0.5" stroke-miterlimit="10"/>
<path d="M457.754 35.2084L464.398 2.04919H465.257L461.524 20.1563L460.367 23.286V26.7137L458.688 35.2084H457.754ZM469.698 35.2084C467.892 35.2622 466.099 34.8787 464.473 34.0906C463.068 33.3937 461.919 32.2725 461.188 30.8865C460.408 29.3385 460.012 27.6265 460.031 25.894C460.01 24.0029 460.326 22.1232 460.964 20.3426C461.534 18.6963 462.422 17.1774 463.577 15.8717C464.727 14.6084 466.124 13.594 467.683 12.8911C469.363 12.2082 471.17 11.8907 472.983 11.9597C474.793 11.9174 476.586 12.3137 478.208 13.1147C479.643 13.8269 480.828 14.9572 481.605 16.3561C482.457 17.8798 482.882 19.6042 482.837 21.3486C482.853 23.2424 482.524 25.1234 481.866 26.8999C481.257 28.5523 480.331 30.0707 479.142 31.3708C477.984 32.6323 476.572 33.6353 474.999 34.3142C473.326 35.0321 471.519 35.3876 469.698 35.3574V35.2084ZM469.698 34.3514C471.881 34.3912 474.03 33.8097 475.894 32.6749C477.786 31.5854 479.356 30.0176 480.448 28.1294C481.517 26.0574 482.056 23.7534 482.016 21.4231C482.088 20.2501 481.909 19.0751 481.491 17.9765C481.072 16.878 480.424 15.881 479.589 15.0521C477.741 13.4639 475.343 12.6615 472.908 12.8166C470.72 12.771 468.565 13.3669 466.712 14.5305C464.891 15.6728 463.409 17.2808 462.42 19.1876C461.344 21.2703 460.805 23.5882 460.852 25.9312C460.79 27.0945 460.97 28.258 461.381 29.3482C461.792 30.4385 462.426 31.4317 463.241 32.265C465.079 33.8212 467.441 34.6205 469.848 34.5005L469.698 34.3514Z" fill="white" stroke="white" stroke-width="0.5" stroke-miterlimit="10"/>
<path d="M484.18 45.1561C483.079 45.1552 481.989 44.94 480.971 44.5227C479.955 44.1541 479.062 43.5088 478.395 42.6598L477.798 41.8402L480.149 39.642L480.896 40.6107C481.247 41.0919 481.725 41.466 482.277 41.6911C482.915 41.9539 483.602 42.0808 484.292 42.0637C485.171 42.0752 486.031 41.8149 486.756 41.3186C487.871 40.4788 488.81 39.428 489.518 38.2262L491.72 34.873L485.449 10.991H488.734L494.034 31.4826L507.434 10.991H511.166L492.205 39.9028C491.467 41.0057 490.616 42.0295 489.667 42.9579C488.931 43.7203 488.04 44.3173 487.054 44.709C486.127 45.0108 485.156 45.1617 484.18 45.1561Z" fill="white" stroke="white" stroke-width="0.5" stroke-miterlimit="10"/>
<path d="M484.181 44.0383C483.219 44.0403 482.268 43.8503 481.381 43.4794C480.563 43.1791 479.841 42.6643 479.291 41.9891L480 41.3185C480.484 41.9329 481.112 42.4191 481.829 42.7343C482.614 43.0396 483.45 43.1914 484.293 43.1814C485.383 43.1836 486.449 42.8591 487.353 42.25C488.6 41.335 489.653 40.1827 490.451 38.8595L493.027 34.9102L493.325 34.6122L508.031 12.2577H509.114L491.235 39.3811C490.56 40.4325 489.771 41.4069 488.884 42.2872C488.261 42.9393 487.494 43.4369 486.644 43.7402C485.849 43.9949 485.013 44.0961 484.181 44.0383ZM493.101 35.7299L486.905 12.1086H487.913L493.736 34.4631L493.101 35.7299Z" fill="white" stroke="white" stroke-width="0.5" stroke-miterlimit="10"/>
<path d="M530.053 36.475C528.489 36.4708 526.932 36.2578 525.425 35.8417C524 35.4654 522.632 34.9016 521.356 34.1651C520.228 33.5192 519.249 32.6433 518.482 31.5943L517.922 30.7374L520.348 28.8L521.058 29.7314C521.604 30.4828 522.32 31.0954 523.148 31.5198C524.157 32.1344 525.251 32.5988 526.395 32.8983C527.612 33.2272 528.867 33.3902 530.128 33.3827C531.92 33.4264 533.705 33.1358 535.39 32.5257C536.703 32.082 537.866 31.2821 538.75 30.2158C539.546 29.1399 539.953 27.8267 539.907 26.49C539.954 25.6775 539.717 24.874 539.235 24.2173C538.675 23.5507 537.974 23.0163 537.182 22.6525C536.181 22.1884 535.145 21.8023 534.084 21.4975C532.89 21.1995 531.658 20.8269 530.352 20.4543C529.149 20.1026 527.986 19.6282 526.88 19.0385C525.76 18.4616 524.788 17.6326 524.044 16.6168C523.264 15.4506 522.872 14.0687 522.924 12.6675C522.869 10.6617 523.487 8.695 524.678 7.07888C525.871 5.56172 527.459 4.40163 529.269 3.72571C531.281 2.95616 533.422 2.5768 535.577 2.60798C537.358 2.60994 539.129 2.86076 540.84 3.35313C542.467 3.81249 543.988 4.5845 545.319 5.62583L546.177 6.29647L544.236 8.82998L543.341 8.12208C542.301 7.32285 541.125 6.71707 539.87 6.33373C536.789 5.41792 533.497 5.49615 530.464 6.55727C529.163 7.00335 528.021 7.81922 527.179 8.9045C526.366 9.97195 525.957 11.2911 526.022 12.6302C525.984 13.4532 526.22 14.2655 526.694 14.9402C527.252 15.6186 527.953 16.1656 528.747 16.5423C529.747 17.0191 530.783 17.4177 531.845 17.7345L535.577 18.7777C536.777 19.1361 537.94 19.6102 539.048 20.1935C540.147 20.7709 541.104 21.5855 541.848 22.578C542.603 23.674 543.007 24.9734 543.005 26.3037C543.07 28.3404 542.408 30.334 541.139 31.9296C539.9 33.4554 538.258 34.6042 536.398 35.2455C534.375 36.0352 532.225 36.4518 530.053 36.475Z" fill="white" stroke="white" stroke-width="0.5" stroke-miterlimit="10"/>
<path d="M530.053 35.3573C528.589 35.3634 527.131 35.1627 525.723 34.7612C524.412 34.4157 523.156 33.889 521.991 33.1964C520.998 32.6504 520.143 31.886 519.49 30.961L520.199 30.4021C520.867 31.2452 521.691 31.9533 522.625 32.4885C523.794 33.1561 525.05 33.6577 526.358 33.9788C527.662 34.3194 529.003 34.4946 530.351 34.5004C532.268 34.5337 534.176 34.2311 535.987 33.6062C537.455 33.0522 538.744 32.1125 539.72 30.8864C540.672 29.6489 541.172 28.1243 541.138 26.5646C541.18 25.4935 540.851 24.4407 540.205 23.584C539.549 22.7869 538.719 22.1497 537.779 21.7211C536.728 21.2125 535.627 20.813 534.494 20.5289L530.762 19.4484C529.627 19.1054 528.528 18.6563 527.477 18.1071C526.512 17.6339 525.679 16.93 525.051 16.058C524.393 15.0805 524.066 13.9184 524.118 12.742C524.069 10.9789 524.607 9.24928 525.648 7.82405C526.732 6.46409 528.163 5.42144 529.791 4.80619C531.664 4.10691 533.652 3.76565 535.652 3.80024C537.332 3.79242 539.005 4.03093 540.616 4.50814C542.095 4.91523 543.477 5.61179 544.684 6.55729L544.087 7.33971C542.977 6.44592 541.712 5.7639 540.354 5.3278C538.854 4.8734 537.294 4.64732 535.726 4.65717C533.842 4.61692 531.968 4.93296 530.202 5.58861C528.728 6.13072 527.436 7.07266 526.47 8.3084C525.528 9.54945 525.041 11.0745 525.089 12.6303C525.035 13.7144 525.365 14.7828 526.022 15.6481C526.662 16.4552 527.479 17.1052 528.41 17.5483C529.48 18.0532 530.592 18.4646 531.732 18.7778L535.465 19.8582C536.609 20.1754 537.711 20.6255 538.749 21.1995C539.715 21.6728 540.548 22.3766 541.176 23.2487C541.825 24.202 542.152 25.3379 542.109 26.4901C542.163 28.2658 541.595 30.0049 540.504 31.408C539.381 32.7666 537.911 33.7965 536.249 34.3886C534.258 35.0765 532.159 35.4045 530.053 35.3573Z" fill="white" stroke="white" stroke-width="0.5" stroke-miterlimit="10"/>
<path d="M565.847 36.326L558.121 23.5094L551.328 28.7627L549.798 36.326H546.625L553.717 0.931396H556.889L552.224 24.1801L569.319 10.9909H574.432L560.622 21.6093L569.543 36.326H565.847Z" fill="white" stroke="white" stroke-width="0.5" stroke-miterlimit="10"/>
<path d="M548.006 35.2084L554.65 2.04919H555.509L548.902 35.2084H548.006ZM549.985 28.3902V27.2725L569.655 12.1087H571.073L559.092 21.2741L558.495 21.7957L549.985 28.3902ZM566.482 35.2084L558.308 21.6466L559.017 21.0878L567.565 35.2084H566.482Z" fill="white" stroke="white" stroke-width="0.5" stroke-miterlimit="10"/>
<path d="M571.596 36.1771L576.634 10.842H579.807L574.768 36.1771H571.596ZM579.434 6.66915C579.149 6.6711 578.867 6.61605 578.604 6.50726C578.342 6.39846 578.103 6.23814 577.904 6.03577C577.689 5.84394 577.517 5.60831 577.402 5.34479C577.286 5.08127 577.228 4.79599 577.232 4.50822C577.233 4.19232 577.299 3.88007 577.428 3.59139C577.557 3.30272 577.744 3.04395 577.978 2.83163C578.19 2.60906 578.445 2.4316 578.727 2.30994C579.009 2.18828 579.313 2.12494 579.621 2.12374C579.911 2.11869 580.2 2.17211 580.469 2.28079C580.739 2.38947 580.983 2.5512 581.189 2.75634C581.394 2.96147 581.557 3.20581 581.665 3.47478C581.774 3.74376 581.828 4.03187 581.823 4.32193C581.804 4.94482 581.545 5.53637 581.1 5.97354C580.655 6.41072 580.058 6.65986 579.434 6.66915Z" fill="white" stroke="white" stroke-width="0.5" stroke-miterlimit="10"/>
<path d="M572.939 35.2083L577.568 12.1086H578.464L573.761 35.2083H572.939ZM579.434 5.70035C579.295 5.71216 579.155 5.69136 579.025 5.63961C578.896 5.58786 578.78 5.5066 578.688 5.40229C578.582 5.30846 578.498 5.19365 578.44 5.0653C578.382 4.93694 578.352 4.7979 578.352 4.65715C578.357 4.4883 578.396 4.32221 578.466 4.16865C578.537 4.01509 578.637 3.87715 578.762 3.76296C578.868 3.64068 579 3.54373 579.149 3.47925C579.298 3.41476 579.459 3.3844 579.621 3.39039C579.759 3.38842 579.896 3.41373 580.024 3.46489C580.152 3.51605 580.269 3.59203 580.367 3.68845C580.473 3.78936 580.558 3.91074 580.616 4.04524C580.673 4.17973 580.703 4.32453 580.703 4.47085C580.693 4.79354 580.559 5.10005 580.33 5.32777C580.214 5.44719 580.074 5.54179 579.92 5.60584C579.766 5.66988 579.601 5.70204 579.434 5.70035Z" fill="white" stroke="white" stroke-width="0.5" stroke-miterlimit="10"/>
<path d="M601.791 36.1771L604.777 21.2741C605.048 20.3462 605.119 19.3713 604.984 18.4143C604.848 17.4572 604.511 16.5397 603.994 15.7227C603.344 15.0251 602.54 14.4896 601.645 14.1596C600.75 13.8295 599.79 13.7141 598.843 13.8226C596.434 13.726 594.073 14.5073 592.199 16.0208C590.302 17.7026 589.06 19.998 588.69 22.5036L585.966 36.1771H582.793L587.832 10.842H591.004L590.482 13.45L591.826 12.5558C593.977 11.3066 596.428 10.6628 598.917 10.693C600.929 10.6083 602.924 11.0995 604.665 12.1087C606.138 13.0469 607.234 14.4708 607.763 16.1325C608.225 17.9417 608.225 19.8375 607.763 21.6467L604.852 36.1771H601.791Z" fill="white" stroke="white" stroke-width="0.5" stroke-miterlimit="10"/>
<path d="M598.918 11.9597C600.717 11.8686 602.505 12.2953 604.069 13.1892C605.335 13.9695 606.266 15.1908 606.681 16.6169C607.115 18.2402 607.115 19.9488 606.681 21.5721L603.957 35.2084H603.061L605.786 21.5721C606.102 20.498 606.179 19.3677 606.011 18.2607C605.844 17.1537 605.435 16.0967 604.815 15.1638C604.069 14.3182 603.13 13.6636 602.078 13.2552C601.026 12.8467 599.891 12.6963 598.769 12.8166C596.064 12.7088 593.412 13.5824 591.304 15.2756C589.249 17.1275 587.925 19.6514 587.571 22.3918L584.958 35.2084H584.062L588.691 12.1087H589.587L588.243 18.8151L587.795 19.0386C588.742 16.8521 590.363 15.0246 592.423 13.8226C594.38 12.6271 596.624 11.9833 598.918 11.9597Z" fill="white" stroke="white" stroke-width="0.5" stroke-miterlimit="10"/>
<path d="M16.1618 90.0513C13.3269 90.1411 10.5116 89.5535 7.95029 88.3375C5.76164 87.2645 3.94251 85.5655 2.72475 83.4568C1.50001 81.2741 0.881511 78.8045 0.933166 76.3033C0.934318 73.7596 1.38932 71.2363 2.27687 68.8518C3.20316 66.3997 4.61187 64.1574 6.41995 62.2573C8.17992 60.3359 10.3305 58.8116 12.7279 57.7864C15.3791 56.6985 18.2223 56.1536 21.0887 56.1843C23.3654 56.1469 25.6298 56.5257 27.7699 57.302C29.5954 57.954 31.226 59.0562 32.5102 60.5062L33.182 61.3258L30.9425 63.4122L30.1587 62.5553C29.1554 61.4276 27.8659 60.591 26.4262 60.1336C24.667 59.5079 22.8059 59.2173 20.9394 59.2767C18.5575 59.2424 16.194 59.699 13.9969 60.6179C12.0028 61.4822 10.2106 62.7509 8.73409 64.3437C7.28156 65.9158 6.1416 67.7491 5.37485 69.746C4.57782 71.8403 4.17294 74.063 4.18043 76.3033C4.15431 78.2535 4.62985 80.1777 5.56149 81.892C6.46741 83.5087 7.84833 84.8091 9.51794 85.6177C11.6653 86.6144 14.0193 87.0869 16.3857 86.9962C18.3664 87.0294 20.3374 86.7141 22.2084 86.0648C23.8164 85.5027 25.2905 84.6148 26.5381 83.4568L27.434 82.6371L29.3375 85.1334L28.591 85.804C27.0459 87.2018 25.229 88.2671 23.2535 88.9336C20.9749 89.7237 18.5735 90.1022 16.1618 90.0513Z" fill="white" stroke="white" stroke-width="0.5" stroke-miterlimit="10"/>
<path d="M16.1619 88.9336C13.512 89.0142 10.8797 88.4785 8.47292 87.3688C6.46963 86.387 4.80593 84.8301 3.69532 82.8979C2.57696 80.8819 2.0105 78.6074 2.05301 76.3033C2.04901 73.8627 2.47867 71.4407 3.32205 69.1499C4.1632 66.9047 5.43054 64.8427 7.05455 63.0769C8.7145 61.2822 10.7373 59.8599 12.9892 58.9041C15.493 57.8552 18.1872 57.3351 20.9022 57.3765C23.0393 57.3307 25.166 57.6845 27.1727 58.4197C28.8307 59.0026 30.3094 60.0038 31.4652 61.3258L30.8306 61.8847C29.7077 60.6452 28.2982 59.6987 26.7249 59.1276C24.8255 58.4921 22.8303 58.1895 20.8275 58.2334C18.2682 58.1893 15.7272 58.6713 13.3625 59.6492C11.227 60.5562 9.30665 61.9018 7.72643 63.5985C6.10359 65.2515 4.83379 67.2162 3.99393 69.3734C3.15101 71.5868 2.72087 73.9354 2.72483 76.3033C2.69002 78.4505 3.21754 80.5696 4.25517 82.4508C5.28013 84.248 6.82955 85.6906 8.69686 86.5864C11.029 87.675 13.5897 88.1862 16.1619 88.0767C18.2703 88.1064 20.3675 87.7659 22.3578 87.0707C24.1027 86.4573 25.7032 85.4936 27.0608 84.2392L27.6206 84.9471C26.1704 86.2279 24.4843 87.215 22.6565 87.8531C20.5657 88.5669 18.3715 88.9319 16.1619 88.9336Z" fill="white" stroke="white" stroke-width="0.5" stroke-miterlimit="10"/>
<path d="M41.6547 90.0514C39.6758 90.1036 37.7145 89.6685 35.944 88.7847C34.3678 87.9255 33.0722 86.6323 32.2115 85.0589C31.2895 83.3558 30.8265 81.4429 30.8678 79.5076C30.8207 76.8245 31.4496 74.1726 32.6967 71.7953C33.8608 69.5881 35.5856 67.7251 37.6983 66.3929C39.9518 65.0489 42.5387 64.3647 45.1633 64.4183C47.1661 64.366 49.1516 64.8008 50.9486 65.685C52.5261 66.5425 53.8221 67.8361 54.6811 69.4108C55.6094 71.1249 56.0726 73.0514 56.0248 74.9994C56.0693 77.6659 55.4539 80.3022 54.2332 82.6744C53.0768 84.8989 51.3347 86.7667 49.1944 88.0768C46.9283 89.456 44.3072 90.1424 41.6547 90.0514ZM44.7527 67.5106C42.7738 67.4784 40.8283 68.0222 39.1539 69.0755C37.5591 70.1411 36.2721 71.6056 35.4214 73.3228C34.4254 75.2303 33.9249 77.3569 33.9658 79.5076C33.8968 80.5194 34.0442 81.5343 34.3981 82.485C34.752 83.4357 35.3044 84.3003 36.0186 85.0217C37.668 86.4152 39.7977 87.1104 41.9533 86.9591C43.9293 87.0089 45.8763 86.4777 47.5521 85.4315C49.1639 84.3854 50.4555 82.9157 51.2846 81.1841C52.2806 79.2766 52.7811 77.1501 52.7402 74.9994C52.8122 73.9817 52.6664 72.9603 52.3124 72.0032C51.9585 71.046 51.4045 70.175 50.6874 69.448C49.0247 68.0783 46.9049 67.3863 44.7527 67.5106Z" fill="white" stroke="white" stroke-width="0.5" stroke-miterlimit="10"/>
<path d="M41.6548 88.9336C39.8491 88.9773 38.0585 88.5943 36.4293 87.8158C34.9972 87.0689 33.8065 85.9321 32.9954 84.5372C32.1778 83.0017 31.7667 81.2832 31.801 79.5447C31.754 77.0576 32.3314 74.5984 33.4806 72.3912C34.5401 70.3381 36.1402 68.6121 38.1089 67.3987C40.14 66.1587 42.4844 65.5252 44.8648 65.5731C46.6832 65.522 48.4875 65.9052 50.1276 66.6908C51.5386 67.4366 52.7144 68.5587 53.5241 69.9323C54.3627 71.4732 54.775 73.2093 54.7186 74.962C54.7586 77.444 54.1951 79.8986 53.0763 82.1155C51.9914 84.1627 50.3813 85.8855 48.4106 87.1079C46.3812 88.3518 44.0357 88.9857 41.6548 88.9336ZM41.6548 88.0766C43.8369 88.1103 45.9844 87.5292 47.8508 86.4001C49.6623 85.241 51.1311 83.6204 52.1058 81.7056C53.1863 79.6364 53.7376 77.3326 53.7108 74.9993C53.783 73.8262 53.6041 72.6513 53.1857 71.5527C52.7674 70.4541 52.1193 69.4572 51.2847 68.6282C49.4319 67.0471 47.0366 66.2456 44.6035 66.3928C42.4109 66.3583 40.2565 66.9672 38.4075 68.1439C36.5778 69.2762 35.0933 70.8867 34.1151 72.8011C33.0461 74.8731 32.5076 77.1771 32.5475 79.5074C32.4758 80.6716 32.6515 81.8378 33.0632 82.9294C33.4749 84.0209 34.1132 85.0133 34.9363 85.8412C36.8403 87.4618 39.309 88.2654 41.8041 88.0766H41.6548Z" fill="white" stroke="white" stroke-width="0.5" stroke-miterlimit="10"/>
<path d="M58.3765 89.9396L65.4682 54.5077H68.6408L61.5491 89.9396H58.3765Z" fill="white" stroke="white" stroke-width="0.5" stroke-miterlimit="10"/>
<path d="M59.7573 88.8219L66.3639 55.6255H67.2597L60.6531 88.8219H59.7573Z" fill="white" stroke="white" stroke-width="0.5" stroke-miterlimit="10"/>
<path d="M69.574 89.9396L76.6657 54.5077H79.8384L72.7466 89.9396H69.574Z" fill="white" stroke="white" stroke-width="0.5" stroke-miterlimit="10"/>
<path d="M70.9548 88.8219L77.5987 55.6255H78.4572L71.8507 88.8219H70.9548Z" fill="white" stroke="white" stroke-width="0.5" stroke-miterlimit="10"/>
<path d="M91.7822 90.0514C89.7238 90.0998 87.6814 89.6793 85.8102 88.8219C84.1139 88.0385 82.714 86.7326 81.8164 85.0961C80.8676 83.3481 80.3916 81.3834 80.4354 79.3957C80.4243 76.8087 81.0254 74.2556 82.1897 71.9442C83.2826 69.7681 84.9304 67.9177 86.9673 66.5791C89.0431 65.2337 91.4722 64.5335 93.947 64.5672C95.8733 64.5204 97.7821 64.9424 99.5085 65.7967C101.105 66.6286 102.408 67.9289 103.241 69.5225C104.144 71.2449 104.593 73.1679 104.547 75.1111C104.547 75.5209 104.547 75.968 104.547 76.4151C104.571 76.7997 104.571 77.1855 104.547 77.5701V78.5015H84.0186C83.9992 78.8614 83.9992 79.2221 84.0186 79.582C83.9387 80.6061 84.0808 81.6352 84.435 82.5996C84.7892 83.5639 85.3474 84.4408 86.0714 85.1706C87.8293 86.5794 90.0564 87.2716 92.3047 87.108C93.8132 87.1338 95.3113 86.855 96.7091 86.2884C97.9291 85.8046 99.0165 85.0384 99.8817 84.0529L100.703 83.1215L102.756 85.3569L102.121 86.1021C100.967 87.4103 99.523 88.431 97.9035 89.0827C95.9605 89.8557 93.8694 90.1866 91.7822 90.0514ZM101.449 75.1484C101.548 73.8833 101.369 72.6121 100.927 71.4226C100.407 70.1701 99.4887 69.1228 98.3141 68.442C96.9818 67.6973 95.4735 67.3241 93.947 67.3615C92.0686 67.3417 90.2256 67.8729 88.6469 68.8891C86.9632 70.0138 85.6309 71.5891 84.8024 73.4345C84.4681 74.0789 84.1933 74.7523 83.9813 75.4464L101.449 75.1484Z" fill="white" stroke="white" stroke-width="0.5" stroke-miterlimit="10"/>
<path d="M91.7822 88.9336C89.8918 88.9838 88.0149 88.6015 86.2954 87.8159C84.8148 87.1286 83.5877 85.9949 82.7869 84.5745C81.9261 83.0003 81.501 81.2256 81.5551 79.433C81.5182 76.9752 82.0819 74.5454 83.1974 72.354C84.1962 70.3395 85.7169 68.6286 87.6018 67.3988C89.4849 66.1674 91.6962 65.5312 93.947 65.5732C95.693 65.5287 97.4232 65.9125 98.9859 66.6909C100.377 67.3942 101.513 68.5147 102.233 69.895C103.03 71.4634 103.428 73.2038 103.39 74.9621C103.39 75.3346 103.39 75.7445 103.39 76.1171C103.39 76.4896 103.39 76.8995 103.39 77.2348H82.5256V76.3779H102.83L102.457 76.8622C102.863 74.9588 102.708 72.9787 102.009 71.1618C101.465 69.5961 100.38 68.2751 98.9486 67.436C97.4488 66.5866 95.7454 66.1615 94.0217 66.2066C91.9295 66.1844 89.8776 66.7807 88.1243 67.9204C86.3569 69.066 84.9269 70.6605 83.9812 72.5403C82.9671 74.6292 82.4559 76.9257 82.4883 79.2467C82.413 80.4256 82.5905 81.607 83.0088 82.712C83.4272 83.8171 84.0768 84.8204 84.9144 85.655C86.8701 87.2615 89.367 88.0613 91.8941 87.8904C93.5544 87.9102 95.2026 87.6065 96.7464 86.9962C98.1721 86.4551 99.4506 85.5873 100.479 84.4627L101.001 85.0588C99.9731 86.2195 98.6979 87.1361 97.2689 87.7414C95.5445 88.5201 93.6748 88.9264 91.7822 88.9336Z" fill="white" stroke="white" stroke-width="0.5" stroke-miterlimit="10"/>
<path d="M117.984 90.0514C115.945 90.1114 113.921 89.6767 112.087 88.7846C110.424 87.9662 109.046 86.6682 108.131 85.0589C107.209 83.3558 106.746 81.4429 106.787 79.5075C106.737 76.8122 107.366 74.1475 108.616 71.7579C109.788 69.5423 111.543 67.6875 113.692 66.3929C115.934 65.0217 118.529 64.3353 121.157 64.4182C123.044 64.3641 124.919 64.7333 126.644 65.4987C128.217 66.1868 129.526 67.3627 130.376 68.8519L130.862 69.6715L128.473 71.6089L127.801 70.5284C127.187 69.519 126.274 68.7249 125.188 68.2557C123.893 67.7003 122.492 67.4333 121.082 67.4733C119.08 67.4374 117.109 67.9808 115.409 69.0381C113.678 70.1072 112.271 71.6271 111.341 73.4345C110.374 75.3512 109.887 77.4735 109.922 79.6193C109.853 80.6311 110.001 81.646 110.355 82.5967C110.709 83.5474 111.261 84.412 111.975 85.1334C113.691 86.5384 115.883 87.232 118.096 87.0708C119.544 87.0943 120.981 86.8151 122.314 86.2511C123.518 85.7574 124.591 84.9923 125.449 84.0157L126.308 82.9724L128.286 85.3197L127.726 86.0276C126.599 87.4075 125.133 88.4728 123.471 89.1199C121.722 89.7881 119.857 90.1046 117.984 90.0514Z" fill="white" stroke="white" stroke-width="0.5" stroke-miterlimit="10"/>
<path d="M117.985 88.9336C116.119 88.9804 114.267 88.5979 112.573 87.8159C111.123 87.0799 109.918 85.9413 109.101 84.5373C108.284 83.0018 107.873 81.2833 107.907 79.5448C107.86 77.0339 108.437 74.5506 109.587 72.3168C110.694 70.2954 112.3 68.5897 114.252 67.3616C116.305 66.1448 118.658 65.5253 121.045 65.5732C122.764 65.5224 124.472 65.8533 126.047 66.5419C127.395 67.1663 128.526 68.1782 129.294 69.448L128.66 69.9696C127.911 68.7932 126.834 67.8609 125.562 67.287C124.114 66.662 122.548 66.3569 120.971 66.3929C118.755 66.3611 116.578 66.9692 114.7 68.144C112.85 69.2634 111.351 70.8764 110.37 72.8012C109.301 74.8732 108.763 77.1772 108.803 79.5075C108.729 80.6751 108.907 81.845 109.325 82.9379C109.744 84.0307 110.393 85.0209 111.229 85.8413C113.145 87.4408 115.604 88.2415 118.097 88.0767C119.696 88.0935 121.283 87.7894 122.762 87.1825C124.193 86.6331 125.472 85.752 126.495 84.6118L127.017 85.2451C126.035 86.4646 124.748 87.4029 123.285 87.965C121.606 88.6552 119.8 88.9852 117.985 88.9336Z" fill="white" stroke="white" stroke-width="0.5" stroke-miterlimit="10"/>
<path d="M139.297 90.0514C137.992 90.1264 136.693 89.8154 135.564 89.1572C134.553 88.5329 133.819 87.5467 133.511 86.4002C133.239 85.1732 133.239 83.9014 133.511 82.6744L136.497 67.7714H132.205L132.69 64.6791H137.244L138.252 59.6493H141.424L140.417 64.6791H148.255L147.77 67.7714H139.857L136.833 82.9352C136.484 84.0131 136.551 85.1824 137.02 86.2139C137.33 86.5351 137.71 86.7798 138.132 86.9286C138.553 87.0773 139.003 87.126 139.446 87.0708C140.069 87.0906 140.691 86.9894 141.275 86.7728C141.841 86.5995 142.362 86.3072 142.805 85.9158L143.701 85.1707L145.567 87.5179L144.784 88.2258C144.027 88.8997 143.137 89.4074 142.171 89.7161C141.237 89.9794 140.267 90.0926 139.297 90.0514Z" fill="white" stroke="white" stroke-width="0.5" stroke-miterlimit="10"/>
<path d="M133.512 66.5419V65.6849H146.725V66.5419H133.512ZM139.297 88.8964C138.249 88.9576 137.207 88.6976 136.311 88.1512C135.554 87.667 134.997 86.9261 134.743 86.0648C134.481 84.9876 134.481 83.8633 134.743 82.7861L139.148 60.4316H140.044L135.677 82.3763C135.237 83.745 135.358 85.2318 136.012 86.5119C136.413 87.0014 136.931 87.3813 137.518 87.616C138.106 87.8506 138.744 87.9322 139.372 87.8532C140.119 87.8598 140.863 87.7466 141.574 87.5178C142.265 87.2685 142.909 86.9031 143.477 86.4374L143.963 87.0708C143.323 87.6297 142.573 88.0485 141.761 88.3003C140.984 88.6571 140.15 88.8716 139.297 88.9336V88.8964Z" fill="white" stroke="white" stroke-width="0.5" stroke-miterlimit="10"/>
<path d="M149.188 89.9396L154.227 64.5672H157.399L152.361 89.9396H149.188ZM157.026 60.4316C156.451 60.4045 155.907 60.1642 155.499 59.7577C155.092 59.3512 154.851 58.8077 154.824 58.2335C154.827 57.9179 154.895 57.6064 155.023 57.318C155.152 57.0297 155.338 56.7706 155.571 56.5569C155.782 56.3343 156.037 56.1569 156.319 56.0352C156.601 55.9135 156.905 55.8502 157.213 55.849C157.503 55.8462 157.791 55.9008 158.06 56.0095C158.329 56.1182 158.574 56.2789 158.781 56.4824C159.185 56.9033 159.413 57.4636 159.415 58.0472C159.405 58.6766 159.151 59.2775 158.705 59.7226C158.259 60.1677 157.657 60.422 157.026 60.4316Z" fill="white" stroke="white" stroke-width="0.5" stroke-miterlimit="10"/>
<path d="M150.532 88.8218L155.16 65.6849H156.056L151.428 88.8218H150.532ZM157.026 59.3139C156.745 59.2963 156.48 59.1768 156.281 58.9779C156.081 58.7789 155.961 58.5142 155.944 58.2334C155.949 58.0646 155.988 57.8985 156.059 57.7449C156.129 57.5914 156.23 57.4534 156.354 57.3392C156.58 57.1071 156.889 56.9733 157.213 56.9667C157.494 56.9843 157.759 57.1038 157.959 57.3027C158.158 57.5016 158.278 57.7663 158.295 58.0471C158.289 58.3707 158.155 58.6786 157.922 58.9041C157.808 59.0285 157.67 59.1289 157.516 59.1993C157.362 59.2697 157.195 59.3086 157.026 59.3139Z" fill="white" stroke="white" stroke-width="0.5" stroke-miterlimit="10"/>
<path d="M170.949 90.0514C168.97 90.1005 167.009 89.6656 165.238 88.7846C163.651 87.9396 162.352 86.6427 161.505 85.0589C160.571 83.3593 160.095 81.4462 160.124 79.5075C160.091 76.8378 160.72 74.2014 161.953 71.8325C163.104 69.6279 164.816 67.7646 166.918 66.4301C169.167 65.0767 171.757 64.3917 174.383 64.4555C176.374 64.3987 178.348 64.8339 180.131 65.7222C181.708 66.5797 183.004 67.8734 183.863 69.448C184.821 71.1519 185.299 73.0834 185.244 75.0366C185.295 77.7082 184.665 80.3489 183.415 82.7117C182.249 84.9815 180.471 86.8814 178.282 88.1978C176.093 89.5142 173.579 90.1948 171.023 90.1632L170.949 90.0514ZM174.047 67.5106C172.08 67.4792 170.146 68.0231 168.485 69.0754C166.897 70.1488 165.612 71.6113 164.753 73.3228C163.757 75.2303 163.256 77.3568 163.297 79.5075C163.228 80.5194 163.375 81.5343 163.729 82.485C164.083 83.4356 164.636 84.3003 165.35 85.0216C167.003 86.4082 169.13 87.1025 171.285 86.959C173.261 87.0089 175.208 86.4777 176.883 85.4315C178.495 84.3853 179.787 82.9156 180.616 81.1841C181.612 79.2766 182.112 77.15 182.072 74.9993C182.143 73.9816 181.998 72.9603 181.644 72.0031C181.29 71.046 180.736 70.175 180.019 69.448C178.35 68.0625 176.212 67.369 174.047 67.5106Z" fill="white" stroke="white" stroke-width="0.5" stroke-miterlimit="10"/>
<path d="M170.949 88.9337C169.155 88.9815 167.375 88.5982 165.761 87.816C164.313 87.0903 163.117 85.9483 162.327 84.5373C161.48 83.0116 161.055 81.2885 161.095 79.5448C161.048 77.0577 161.625 74.5985 162.775 72.3913C163.847 70.3356 165.46 68.6098 167.44 67.3988C169.47 66.155 171.815 65.5211 174.196 65.5732C176.003 65.5194 177.796 65.9028 179.422 66.6909C180.84 67.4268 182.018 68.5513 182.818 69.9324C183.67 71.4697 184.095 73.206 184.05 74.9621C184.097 77.4491 183.519 79.9084 182.37 82.1156C181.3 84.1612 179.702 85.8847 177.742 87.108C175.697 88.3472 173.341 88.9804 170.949 88.9337ZM170.949 88.0768C173.132 88.1207 175.282 87.5388 177.145 86.4002C178.976 85.2533 180.46 83.6305 181.437 81.7057C182.506 79.6337 183.045 77.3297 183.005 74.9994C183.075 73.8297 182.898 72.6585 182.487 71.5611C182.075 70.4638 181.438 69.4647 180.616 68.6283C178.75 67.0449 176.342 66.2438 173.897 66.3929C171.718 66.3657 169.577 66.9743 167.739 68.144C165.898 69.274 164.401 70.8843 163.409 72.8012C162.34 74.8732 161.802 77.1772 161.841 79.5075C161.777 80.6742 161.96 81.8413 162.378 82.9327C162.796 84.0241 163.44 85.0152 164.268 85.8413C165.201 86.6462 166.286 87.2582 167.459 87.6419C168.631 88.0256 169.868 88.1734 171.098 88.0768H170.949Z" fill="white" stroke="white" stroke-width="0.5" stroke-miterlimit="10"/>
<path d="M206.669 89.9396L209.692 75.0366C209.963 74.1087 210.033 73.1339 209.898 72.1768C209.763 71.2197 209.425 70.3022 208.908 69.4852C208.255 68.7924 207.45 68.2601 206.557 67.9304C205.663 67.6007 204.705 67.4825 203.757 67.5851C201.351 67.5053 198.995 68.2847 197.113 69.7833C195.216 71.4651 193.974 73.7605 193.605 76.2661L190.88 90.0141H187.708L192.746 64.6418H195.919L195.396 67.2498C195.827 66.9262 196.275 66.6276 196.74 66.3556C198.896 65.1194 201.346 64.4885 203.832 64.53C205.84 64.4341 207.834 64.9123 209.58 65.9085C211.064 66.8257 212.154 68.2593 212.641 69.9323C213.108 71.7534 213.108 73.6627 212.641 75.4837L209.729 90.0141L206.669 89.9396Z" fill="white" stroke="white" stroke-width="0.5" stroke-miterlimit="10"/>
<path d="M203.832 65.5732C205.632 65.4821 207.42 65.9089 208.983 66.8027C210.247 67.5686 211.178 68.7776 211.596 70.1931C212.029 71.8292 212.029 73.5496 211.596 75.1856L208.871 88.8219H207.975L210.7 75.1856C211.019 74.1057 211.098 72.969 210.93 71.8555C210.763 70.742 210.353 69.6786 209.73 68.7401C208.983 67.8945 208.045 67.2399 206.993 66.8315C205.94 66.423 204.805 66.2726 203.683 66.3929C200.979 66.2851 198.327 67.1586 196.218 68.8519C194.164 70.7038 192.84 73.2276 192.485 75.9681L189.91 88.8219H189.014L193.642 65.685H194.538L193.195 72.3913L192.747 72.6149C193.637 70.3895 195.22 68.5087 197.263 67.2498C199.26 66.1065 201.531 65.527 203.832 65.5732Z" fill="white" stroke="white" stroke-width="0.5" stroke-miterlimit="10"/>
<path d="M256.721 89.9768L252.466 70.1558L241.082 89.9768H238.693L233.431 64.6417H236.566L240.672 84.6863L252.131 64.6417H254.445L258.662 84.649L269.935 64.6417H273.518L259.073 89.9768H256.721Z" fill="white" stroke="white" stroke-width="0.5" stroke-miterlimit="10"/>
<path d="M239.627 88.8592L234.812 65.7595H235.67L240.261 88.114H239.926L252.803 65.7595H253.549L258.289 88.114H257.954L270.607 65.7595H271.615L258.439 88.8592H257.618L252.877 66.5047H253.251L240.411 88.8592H239.627Z" fill="white" stroke="white" stroke-width="0.5" stroke-miterlimit="10"/>
<path d="M271.055 89.9769L276.094 64.6418H279.266L274.227 89.9769H271.055ZM278.893 60.469C278.608 60.4709 278.326 60.4159 278.063 60.3071C277.801 60.1983 277.562 60.0379 277.363 59.8356C277.153 59.6419 276.987 59.405 276.877 59.1413C276.768 58.8776 276.717 58.5933 276.728 58.308C276.722 57.9945 276.782 57.6833 276.904 57.3944C277.026 57.1056 277.208 56.8456 277.437 56.6314C277.649 56.4089 277.904 56.2314 278.186 56.1097C278.468 55.9881 278.772 55.9247 279.08 55.9235C279.37 55.9185 279.659 55.9719 279.928 56.0806C280.198 56.1893 280.443 56.351 280.648 56.5561C280.854 56.7613 281.016 57.0056 281.124 57.2746C281.233 57.5436 281.287 57.8317 281.282 58.1217C281.263 58.7446 281.004 59.3362 280.559 59.7734C280.114 60.2105 279.517 60.4597 278.893 60.469Z" fill="white" stroke="white" stroke-width="0.5" stroke-miterlimit="10"/>
<path d="M272.398 88.8591L277.026 65.7595H277.922L273.294 88.8591H272.398ZM278.893 59.3512C278.753 59.363 278.613 59.3422 278.484 59.2904C278.354 59.2387 278.239 59.1574 278.146 59.0531C278.041 58.9593 277.957 58.8445 277.899 58.7161C277.841 58.5878 277.811 58.4487 277.81 58.308C277.815 58.1391 277.854 57.973 277.925 57.8195C277.995 57.6659 278.096 57.528 278.221 57.4138C278.327 57.2915 278.459 57.1946 278.607 57.1301C278.756 57.0656 278.917 57.0352 279.079 57.0412C279.224 57.03 279.37 57.0503 279.506 57.1006C279.643 57.151 279.767 57.2302 279.869 57.3329C279.972 57.4355 280.052 57.5592 280.102 57.6953C280.152 57.8315 280.173 57.9769 280.162 58.1217C280.151 58.4444 280.018 58.7509 279.788 58.9786C279.672 59.098 279.533 59.1926 279.379 59.2567C279.225 59.3207 279.059 59.3529 278.893 59.3512Z" fill="white" stroke="white" stroke-width="0.5" stroke-miterlimit="10"/>
<path d="M289.754 90.1259C288.444 90.2012 287.142 89.8763 286.022 89.1945C285.024 88.5805 284.302 87.6064 284.006 86.4747C283.733 85.2476 283.733 83.9759 284.006 82.7489L286.992 67.8459H282.625L283.11 64.7535H287.627L288.634 59.6865H291.844L290.836 64.7535H298.6L298.115 67.8459H290.09L287.067 82.9725C286.696 84.0602 286.763 85.249 287.253 86.2884C287.563 86.6096 287.944 86.8543 288.365 87.003C288.786 87.1518 289.236 87.2005 289.679 87.1453C290.303 87.1651 290.924 87.0639 291.508 86.8472C292.067 86.6591 292.586 86.3685 293.039 85.9903L293.934 85.2452L295.763 87.5924L295.017 88.3003C294.256 88.9689 293.367 89.476 292.404 89.7906C291.541 90.0286 290.649 90.1416 289.754 90.1259Z" fill="white" stroke="white" stroke-width="0.5" stroke-miterlimit="10"/>
<path d="M283.969 66.6163V65.7594H297.182V66.6163H283.969ZM289.754 88.9708C288.696 89.0088 287.649 88.7507 286.731 88.2257C285.973 87.7505 285.425 87.0041 285.2 86.1393C284.957 85.0599 284.957 83.9399 285.2 82.8606L289.642 60.5061H290.538L286.171 82.488C285.943 83.164 285.855 83.8793 285.913 84.5903C285.97 85.3013 286.172 85.9932 286.507 86.6236C286.907 87.1131 287.425 87.4931 288.013 87.7277C288.6 87.9623 289.238 88.0439 289.866 87.9649C290.613 87.9684 291.356 87.8552 292.068 87.6296C292.748 87.3797 293.38 87.0142 293.935 86.5491L294.42 87.1825C293.799 87.7483 293.059 88.1684 292.255 88.412C291.456 88.736 290.613 88.937 289.754 89.0081V88.9708Z" fill="white" stroke="white" stroke-width="0.5" stroke-miterlimit="10"/>
<path d="M318.606 89.9769L321.592 75.0739C321.869 74.1485 321.945 73.1752 321.817 72.2181C321.688 71.2611 321.357 70.3423 320.846 69.5225C320.193 68.8195 319.382 68.2808 318.48 67.9505C317.579 67.6202 316.611 67.5078 315.658 67.6224C313.26 67.5246 310.91 68.3065 309.051 69.8206C307.154 71.5024 305.912 73.7978 305.543 76.3034L302.781 90.0141H299.608L306.7 54.6195H309.872L307.334 67.287C307.746 66.9554 308.182 66.6564 308.641 66.3929C310.804 65.1388 313.268 64.4949 315.77 64.53C317.782 64.4453 319.776 64.9366 321.518 65.9458C322.992 66.8734 324.079 68.3029 324.578 69.9696C325.07 71.7748 325.07 73.6784 324.578 75.4837L321.667 90.0141L318.606 89.9769Z" fill="white" stroke="white" stroke-width="0.5" stroke-miterlimit="10"/>
<path d="M315.77 65.6104C317.569 65.5276 319.354 65.9538 320.921 66.8399C322.166 67.6348 323.08 68.8522 323.496 70.2676C323.913 71.8931 323.913 73.5974 323.496 75.2229L320.772 88.8591H319.95L322.675 75.2229C322.984 74.1478 323.057 73.019 322.89 71.9132C322.722 70.8073 322.318 69.7505 321.705 68.8146C320.949 67.9708 320.003 67.318 318.946 66.91C317.888 66.502 316.748 66.3503 315.621 66.4674C312.913 66.3387 310.254 67.2146 308.156 68.9264C306.117 70.7903 304.796 73.308 304.423 76.0425L301.885 88.8591H300.989L307.596 55.7H308.492L305.132 72.4658L304.684 72.6894C305.591 70.453 307.186 68.5615 309.238 67.287C311.223 66.1468 313.481 65.5673 315.77 65.6104Z" fill="white" stroke="white" stroke-width="0.5" stroke-miterlimit="10"/>
<path d="M351.341 90.1259C349.35 90.1735 347.378 89.7389 345.592 88.8591C344.006 88.014 342.707 86.7172 341.86 85.1333C340.938 83.4303 340.475 81.5174 340.516 79.582C340.495 77.5631 340.837 75.5568 341.524 73.658C342.186 71.8805 343.187 70.2482 344.473 68.8518C345.745 67.4799 347.281 66.3775 348.989 65.6104C350.793 64.8392 352.737 64.4461 354.7 64.4554C356.69 64.4078 358.663 64.8424 360.448 65.7222C361.901 66.463 363.127 67.5832 363.994 68.9636L364.852 64.6045H368.025L362.949 89.9396H359.776L360.41 86.9217C359.91 87.3363 359.387 87.7219 358.843 88.0767C356.597 89.479 353.988 90.1916 351.341 90.1259ZM354.401 67.7714C352.435 67.7443 350.503 68.2879 348.84 69.3362C347.202 70.3436 345.853 71.7551 344.921 73.4345C343.954 75.3512 343.467 77.4735 343.502 79.6192C343.433 80.6311 343.581 81.646 343.935 82.5967C344.288 83.5473 344.841 84.412 345.555 85.1333C347.191 86.5246 349.308 87.2202 351.452 87.0707C353.427 87.1077 355.37 86.5775 357.051 85.5432C358.654 84.487 359.944 83.02 360.784 81.2958C361.78 79.3883 362.28 77.2618 362.239 75.1111C362.311 74.0934 362.166 73.072 361.812 72.1148C361.458 71.1577 360.904 70.2867 360.187 69.5597C358.575 68.1993 356.51 67.4943 354.401 67.5851V67.7714Z" fill="white" stroke="white" stroke-width="0.5" stroke-miterlimit="10"/>
<path d="M351.341 89.0082C349.53 89.0627 347.734 88.6657 346.115 87.8532C344.671 87.1413 343.474 86.0118 342.681 84.6118C341.846 83.0831 341.434 81.3598 341.487 79.6193C341.454 77.724 341.783 75.8399 342.457 74.0679C343.063 72.4329 343.975 70.9282 345.145 69.6343C346.293 68.3614 347.707 67.3565 349.288 66.6909C350.947 65.9654 352.74 65.5972 354.551 65.6105C356.357 65.5566 358.15 65.9401 359.776 66.7282C361.18 67.4408 362.337 68.5568 363.098 69.9323C363.882 71.4774 364.267 73.1935 364.218 74.9248C364.289 77.4133 363.751 79.8815 362.65 82.1155C361.608 84.1666 360.036 85.9029 358.097 87.1453C356.071 88.4022 353.725 89.0491 351.341 89.0082ZM351.341 88.1512C353.524 88.1951 355.675 87.6133 357.537 86.4746C359.361 85.3193 360.843 83.6986 361.829 81.7802C362.898 79.7082 363.437 77.4042 363.397 75.0738C363.474 73.9035 363.301 72.7303 362.889 71.6319C362.477 70.5334 361.836 69.535 361.008 68.7028C359.142 67.1194 356.734 66.3183 354.289 66.4674C352.116 66.4499 349.982 67.0439 348.131 68.1812C346.307 69.3366 344.825 70.9572 343.838 72.8757C342.769 74.9477 342.231 77.2517 342.271 79.582C342.199 80.7462 342.375 81.9124 342.787 83.0039C343.198 84.0955 343.837 85.0878 344.66 85.9158C345.577 86.7458 346.649 87.3869 347.814 87.8025C348.98 88.2181 350.217 88.3999 351.453 88.3375L351.341 88.1512ZM360.896 88.8591L362.501 80.8115L363.658 77.6819V74.2542L365.338 65.7595H366.233L361.643 88.8591H360.896Z" fill="white" stroke="white" stroke-width="0.5" stroke-miterlimit="10"/>
<path d="M392.809 90.1259C390.769 90.1859 388.746 89.7512 386.911 88.8592C385.249 88.0408 383.87 86.7428 382.955 85.1334C382.033 83.4303 381.57 81.5174 381.611 79.5821C381.556 76.8862 382.185 74.2203 383.44 71.8325C384.622 69.614 386.374 67.7494 388.516 66.4302C390.765 65.0748 393.355 64.3896 395.981 64.4555C397.883 64.41 399.771 64.792 401.505 65.5732C403.078 66.2614 404.387 67.4372 405.238 68.9264L405.723 69.7461L403.334 71.6835L402.663 70.603C402.039 69.6013 401.129 68.8096 400.05 68.3303C398.754 67.7749 397.353 67.5079 395.944 67.5479C393.941 67.5119 391.971 68.0554 390.271 69.1127C388.536 70.1561 387.117 71.6498 386.165 73.4346C385.198 75.3513 384.711 77.4736 384.747 79.6193C384.678 80.6312 384.825 81.6461 385.179 82.5968C385.533 83.5474 386.085 84.4121 386.799 85.1334C388.516 86.5385 390.707 87.232 392.921 87.0708C394.369 87.0943 395.805 86.8151 397.138 86.2511C398.352 85.7579 399.428 84.9781 400.274 83.9784L401.132 82.9725L403.11 85.3197L402.551 86.0276C401.423 87.4075 399.957 88.4728 398.296 89.12C396.551 89.8136 394.686 90.1555 392.809 90.1259Z" fill="white" stroke="white" stroke-width="0.5" stroke-miterlimit="10"/>
<path d="M392.809 89.0081C390.938 89.0614 389.082 88.6652 387.397 87.8531C385.941 87.1435 384.732 86.0144 383.926 84.6117C383.108 83.0762 382.697 81.3578 382.731 79.6192C382.684 77.1084 383.261 74.6251 384.411 72.3913C385.497 70.3546 387.107 68.644 389.076 67.436C391.115 66.2129 393.454 65.5807 395.832 65.6104C397.566 65.5683 399.287 65.9119 400.871 66.6163C402.241 67.2071 403.381 68.2273 404.118 69.5224L403.447 70.044C402.731 68.8537 401.661 67.9159 400.386 67.3615C398.938 66.7364 397.372 66.4314 395.795 66.4673C393.585 66.4409 391.412 67.0348 389.524 68.1812C387.681 69.3242 386.184 70.9472 385.195 72.8756C384.126 74.9476 383.587 77.2516 383.627 79.582C383.553 80.7496 383.731 81.9195 384.15 83.0123C384.568 84.1051 385.217 85.0953 386.053 85.9157C387.969 87.5153 390.429 88.316 392.921 88.1512C394.52 88.168 396.107 87.8639 397.587 87.257C398.95 86.6823 400.163 85.8028 401.132 84.6862L401.655 85.2823C400.679 86.5167 399.39 87.4685 397.922 88.0394C396.298 88.6947 394.561 89.0239 392.809 89.0081Z" fill="white" stroke="white" stroke-width="0.5" stroke-miterlimit="10"/>
<path d="M416.548 90.1259C414.557 90.1736 412.585 89.7389 410.799 88.8591C409.227 87.9949 407.933 86.7029 407.067 85.1334C406.145 83.4303 405.682 81.5174 405.723 79.582C405.679 76.9036 406.294 74.2552 407.515 71.8697C408.694 69.661 410.431 67.7986 412.554 66.4674C414.797 65.0951 417.388 64.3966 420.019 64.4555C422.02 64.4219 424.001 64.8557 425.804 65.7222C427.372 66.5929 428.664 67.8833 429.537 69.448C430.459 71.1511 430.922 73.0639 430.88 74.9993C430.929 77.6782 430.314 80.3277 429.089 82.7116C427.922 84.9286 426.182 86.7938 424.05 88.114C421.799 89.4992 419.191 90.1984 416.548 90.1259ZM419.645 67.7714C417.667 67.7392 415.721 68.2829 414.047 69.3362C412.409 70.3436 411.06 71.7551 410.128 73.4345C409.161 75.3512 408.674 77.4735 408.709 79.6193C408.64 80.6311 408.788 81.646 409.142 82.5967C409.496 83.5474 410.048 84.412 410.762 85.1334C412.398 86.5247 414.515 87.2202 416.66 87.0708C418.645 87.1024 420.599 86.5729 422.296 85.5432C423.884 84.4698 425.169 83.0073 426.028 81.2959C426.995 79.3792 427.482 77.2569 427.446 75.1111C427.507 74.1323 427.373 73.1513 427.053 72.2243C426.732 71.2972 426.232 70.4424 425.58 69.7088C423.945 68.2719 421.823 67.5123 419.645 67.5851V67.7714Z" fill="white" stroke="white" stroke-width="0.5" stroke-miterlimit="10"/>
<path d="M416.547 89.0081C414.738 89.0504 412.945 88.6541 411.322 87.8532C409.877 87.1413 408.681 86.0118 407.888 84.6118C407.07 83.0763 406.659 81.3578 406.694 79.6192C406.651 77.1208 407.228 74.6507 408.373 72.4285C409.434 70.3858 411.034 68.672 413.001 67.4733C415.029 66.2222 417.373 65.5758 419.757 65.6104C421.578 65.5752 423.382 65.971 425.02 66.7654C426.447 67.4889 427.629 68.6164 428.417 70.0068C429.239 71.5405 429.65 73.2602 429.611 74.9993C429.664 77.4989 429.087 79.9717 427.931 82.19C426.861 84.2357 425.264 85.9592 423.303 87.1825C421.272 88.4225 418.928 89.056 416.547 89.0081ZM416.547 88.1512C418.742 88.1899 420.903 87.6087 422.781 86.4746C424.584 85.3061 426.051 83.6879 427.036 81.7802C428.105 79.7081 428.643 77.4042 428.603 75.0738C428.68 73.9035 428.507 72.7302 428.095 71.6318C427.684 70.5334 427.042 69.535 426.215 68.7028C424.36 67.1251 421.966 66.3241 419.533 66.4674C417.348 66.4449 415.2 67.039 413.337 68.1812C411.513 69.3366 410.032 70.9572 409.045 72.8756C407.976 74.9477 407.437 77.2517 407.477 79.582C407.406 80.7462 407.581 81.9123 407.993 83.0039C408.405 84.0955 409.043 85.0878 409.866 85.9158C411.72 87.5885 414.163 88.4594 416.659 88.3375L416.547 88.1512Z" fill="white" stroke="white" stroke-width="0.5" stroke-miterlimit="10"/>
<path d="M452.268 89.9768L455.254 75.0739C455.53 74.1485 455.606 73.1751 455.478 72.2181C455.349 71.2611 455.018 70.3423 454.507 69.5225C453.85 68.8242 453.039 68.2888 452.138 67.9589C451.238 67.629 450.272 67.5138 449.319 67.6224C446.921 67.5175 444.568 68.3003 442.712 69.8205C440.804 71.4986 439.549 73.7937 439.166 76.3034L436.442 90.0141H433.269L438.345 64.679H441.518L440.995 67.287C441.407 66.9553 441.844 66.6564 442.302 66.3929C444.465 65.1388 446.929 64.4949 449.431 64.53C451.443 64.4453 453.437 64.9366 455.179 65.9458C456.653 66.8734 457.74 68.3029 458.24 69.9696C458.701 71.7788 458.701 73.6745 458.24 75.4837L455.328 90.0141L452.268 89.9768Z" fill="white" stroke="white" stroke-width="0.5" stroke-miterlimit="10"/>
<path d="M449.431 65.6105C451.23 65.5277 453.015 65.9539 454.582 66.84C455.827 67.6348 456.741 68.8523 457.157 70.2677C457.574 71.8932 457.574 73.5974 457.157 75.2229L454.395 88.8591H453.499L456.261 75.2229C456.56 74.1467 456.629 73.0196 456.461 71.9154C456.294 70.8111 455.895 69.7545 455.291 68.8146C454.535 67.9708 453.59 67.3181 452.532 66.91C451.474 66.502 450.335 66.3503 449.207 66.4674C446.503 66.3596 443.851 67.2331 441.742 68.9264C439.713 70.798 438.395 73.3119 438.009 76.0426L435.658 88.8591H434.762L439.353 65.7595H440.249L438.905 72.4659L438.457 72.6894C439.363 70.4636 440.942 68.5751 442.974 67.287C444.94 66.17 447.168 65.5916 449.431 65.6105Z" fill="white" stroke="white" stroke-width="0.5" stroke-miterlimit="10"/>
<path d="M470.183 90.1259C468.363 90.138 466.555 89.8225 464.846 89.1944C463.316 88.6845 461.924 87.8304 460.778 86.6982L460.068 85.9158L462.271 83.5686L463.092 84.4627C463.935 85.3175 464.972 85.9566 466.115 86.3256C467.442 86.8073 468.846 87.0471 470.258 87.0335C472.227 87.1424 474.186 86.6763 475.894 85.6922C476.45 85.3546 476.908 84.8779 477.222 84.3094C477.536 83.7408 477.696 83.1001 477.686 82.4508C477.713 82.1249 477.67 81.7969 477.561 81.4886C477.452 81.1803 477.278 80.8987 477.051 80.6625C476.445 80.1494 475.731 79.78 474.961 79.582C473.966 79.2839 472.883 79.0231 471.714 78.7996C470.54 78.5843 469.381 78.2981 468.243 77.9427C467.087 77.5818 466.045 76.927 465.219 76.0425C464.325 75.0115 463.858 73.6793 463.913 72.3168C463.902 70.8123 464.387 69.3459 465.294 68.144C466.273 66.9303 467.563 66.0034 469.026 65.4614C470.681 64.8257 472.442 64.5096 474.214 64.53C475.735 64.5409 477.244 64.7795 478.694 65.2379C480.08 65.5827 481.362 66.2606 482.426 67.2125L483.21 67.9949L481.12 70.2676L480.298 69.5597C479.525 68.907 478.622 68.4246 477.648 68.144C476.549 67.8017 475.404 67.6259 474.252 67.6223C472.385 67.5281 470.535 68.0094 468.952 69.0009C468.39 69.3417 467.929 69.8243 467.615 70.3999C467.3 70.9756 467.143 71.624 467.16 72.2795C467.133 72.6055 467.176 72.9334 467.285 73.2417C467.394 73.55 467.568 73.8316 467.795 74.0679C468.407 74.6005 469.136 74.9832 469.922 75.1856C470.93 75.4837 472.012 75.7072 473.132 75.9308C474.318 76.1749 475.49 76.4859 476.641 76.8622C477.762 77.2358 478.784 77.8602 479.627 78.6878C480.527 79.715 480.995 81.0499 480.933 82.4136C480.962 83.9497 480.461 85.4491 479.515 86.6609C478.53 87.8513 477.24 88.7527 475.782 89.269C473.988 89.9086 472.087 90.1995 470.183 90.1259Z" fill="white" stroke="white" stroke-width="0.5" stroke-miterlimit="10"/>
<path d="M470.184 89.0081C468.492 89.0053 466.813 88.7155 465.219 88.1512C463.817 87.7076 462.539 86.942 461.487 85.9158L462.159 85.2079C463.115 86.1907 464.292 86.9316 465.592 87.3688C467.053 87.8931 468.594 88.1579 470.146 88.1512C472.342 88.281 474.527 87.7488 476.417 86.6237C477.129 86.1875 477.713 85.5726 478.113 84.8405C478.512 84.1083 478.713 83.2843 478.694 82.4508C478.729 81.9688 478.656 81.4851 478.482 81.0342C478.308 80.5834 478.036 80.1765 477.686 79.8428C476.959 79.1999 476.089 78.74 475.148 78.5015C474.103 78.2035 472.983 77.9427 471.826 77.7191C470.689 77.5042 469.567 77.218 468.467 76.8622C467.495 76.5776 466.618 76.0371 465.928 75.2974C465.217 74.4578 464.856 73.3773 464.921 72.2795C464.91 71.0168 465.316 69.7858 466.078 68.7773C466.901 67.7128 468.016 66.9102 469.288 66.4674C470.809 65.8739 472.432 65.5828 474.065 65.6104C475.47 65.6145 476.867 65.828 478.208 66.2438C479.403 66.5626 480.504 67.1632 481.418 67.9949L480.784 68.6656C479.9 67.9167 478.871 67.3585 477.76 67.0262C476.552 66.6536 475.293 66.4652 474.028 66.4674C471.924 66.3648 469.839 66.9111 468.056 68.0322C467.356 68.4869 466.783 69.1118 466.391 69.8483C465.999 70.5848 465.802 71.4086 465.816 72.2423C465.787 72.7238 465.861 73.206 466.035 73.6561C466.209 74.1062 466.478 74.5135 466.824 74.8503C467.539 75.518 468.413 75.9925 469.362 76.2288C470.407 76.5269 471.527 76.7877 472.722 77.0112C473.845 77.2307 474.954 77.5168 476.044 77.8681C477.002 78.1823 477.871 78.7186 478.582 79.433C479.292 80.2438 479.654 81.3011 479.589 82.3763C479.658 83.7158 479.248 85.0361 478.432 86.1021C477.563 87.1579 476.411 87.946 475.11 88.3748C473.521 88.8839 471.851 89.0985 470.184 89.0081Z" fill="white" stroke="white" stroke-width="0.5" stroke-miterlimit="10"/>
<path d="M494.744 90.1259C492.704 90.1815 490.682 89.747 488.846 88.8592C487.183 88.0408 485.805 86.7428 484.89 85.1334C483.968 83.4303 483.505 81.5174 483.546 79.582C483.508 76.8881 484.137 74.2264 485.375 71.8325C486.557 69.614 488.309 67.7494 490.451 66.4301C492.701 65.0767 495.29 64.3917 497.916 64.4555C499.806 64.4131 501.681 64.7951 503.403 65.5732C504.973 66.2658 506.281 67.4405 507.135 68.9264L507.621 69.7461L505.195 71.6834L504.523 70.603C503.919 69.5853 503.003 68.7885 501.91 68.3303C500.615 67.7749 499.213 67.5079 497.804 67.5479C495.801 67.5119 493.831 68.0554 492.131 69.1127C490.424 70.1556 489.041 71.652 488.137 73.4346C487.141 75.3421 486.641 77.4686 486.681 79.6193C486.612 80.6311 486.76 81.6461 487.114 82.5967C487.468 83.5474 488.02 84.4121 488.734 85.1334C490.466 86.5374 492.668 87.2302 494.893 87.0708C496.34 87.0868 497.775 86.8079 499.111 86.2511C500.313 85.7566 501.377 84.9765 502.209 83.9784L503.067 82.9725L505.083 85.3197L504.485 86.0276C503.358 87.4075 501.892 88.4728 500.23 89.12C498.486 89.8136 496.621 90.1555 494.744 90.1259Z" fill="white" stroke="white" stroke-width="0.5" stroke-miterlimit="10"/>
<path d="M494.743 89.0081C492.873 89.0614 491.017 88.6652 489.331 87.8531C487.876 87.1435 486.666 86.0144 485.86 84.6117C485.043 83.0762 484.631 81.3578 484.666 79.6192C484.618 77.1038 485.208 74.6173 486.383 72.3913C487.462 70.3093 489.105 68.5708 491.123 67.3724C493.142 66.174 495.456 65.5636 497.804 65.6104C499.538 65.5683 501.259 65.9119 502.843 66.6163C504.213 67.2071 505.353 68.2273 506.09 69.5224L505.419 70.044C504.68 68.8588 503.6 67.9238 502.32 67.3615C500.874 66.733 499.307 66.4278 497.73 66.4673C495.52 66.4409 493.347 67.0348 491.459 68.1812C489.625 69.3356 488.131 70.9556 487.129 72.8756C486.06 74.9476 485.522 77.2516 485.562 79.582C485.497 80.7486 485.68 81.9158 486.098 83.0071C486.516 84.0985 487.16 85.0896 487.988 85.9157C489.917 87.5176 492.389 88.318 494.893 88.1512C496.48 88.164 498.053 87.86 499.521 87.257C500.885 86.6823 502.098 85.8028 503.067 84.6862L503.627 85.2823C502.635 86.5006 501.351 87.449 499.894 88.0394C498.256 88.6911 496.507 89.0201 494.743 89.0081Z" fill="white" stroke="white" stroke-width="0.5" stroke-miterlimit="10"/>
<path d="M507.882 89.9768L512.958 64.6417H516.131L511.054 89.9768H507.882ZM515.757 60.4689C515.467 60.4716 515.179 60.4171 514.91 60.3084C514.641 60.1997 514.396 60.039 514.19 59.8355C513.987 59.6362 513.826 59.3983 513.717 59.1359C513.608 58.8735 513.553 58.592 513.555 58.3079C513.565 57.6785 513.82 57.0776 514.266 56.6325C514.711 56.1874 515.314 55.9331 515.944 55.9235C516.232 55.9234 516.516 55.9805 516.781 56.0914C517.046 56.2024 517.287 56.3649 517.488 56.5695C517.69 56.7741 517.848 57.0168 517.955 57.2833C518.062 57.5497 518.114 57.8348 518.109 58.1217C518.09 58.7383 517.836 59.3245 517.399 59.7607C516.962 60.1969 516.375 60.4502 515.757 60.4689Z" fill="white" stroke="white" stroke-width="0.5" stroke-miterlimit="10"/>
<path d="M509.263 88.8592L513.854 65.7595H514.749L510.308 88.8592H509.263ZM515.757 59.3512C515.613 59.3583 515.469 59.3354 515.334 59.2841C515.199 59.2328 515.076 59.1542 514.973 59.0532C514.785 58.8502 514.679 58.5847 514.675 58.308C514.675 57.9721 514.809 57.6499 515.047 57.4123C515.285 57.1747 515.607 57.0413 515.944 57.0413C516.221 57.0449 516.487 57.1512 516.69 57.3393C516.792 57.4421 516.87 57.5647 516.922 57.6993C516.973 57.834 516.996 57.9778 516.989 58.1217C516.98 58.4448 516.847 58.7522 516.618 58.9807C516.389 59.2093 516.081 59.3419 515.757 59.3512Z" fill="white" stroke="white" stroke-width="0.5" stroke-miterlimit="10"/>
<path d="M530.09 90.1259C528.032 90.1743 525.989 89.7539 524.118 88.8964C522.429 88.1023 521.032 86.7992 520.124 85.1707C519.157 83.4161 518.68 81.4345 518.743 79.433C518.731 76.8458 519.332 74.2924 520.498 71.9815C521.569 69.7827 523.205 67.906 525.238 66.5419C527.299 65.1905 529.714 64.4775 532.18 64.4927C534.122 64.4529 536.044 64.8878 537.779 65.7595C539.37 66.599 540.67 67.8973 541.511 69.4853C542.41 71.2093 542.859 73.1311 542.818 75.0739C542.818 75.521 542.818 75.9681 542.818 76.4152C542.818 76.8622 542.818 77.2348 542.631 77.5701V78.5016H522.103C522.084 78.8491 522.084 79.1973 522.103 79.5448C522.022 80.5745 522.164 81.6094 522.518 82.5799C522.872 83.5503 523.43 84.4338 524.155 85.1707C525.913 86.5794 528.14 87.2716 530.389 87.108C531.897 87.1338 533.395 86.855 534.793 86.2884C536.006 85.7915 537.09 85.0273 537.966 84.0529L538.787 83.1215L540.84 85.3197L540.205 86.1021C539.051 87.4103 537.607 88.431 535.987 89.0827C534.119 89.8488 532.108 90.2046 530.09 90.1259ZM539.757 75.2229C539.858 73.9578 539.68 72.686 539.235 71.4972C538.724 70.2386 537.804 69.1885 536.622 68.5166C535.278 67.7671 533.756 67.3938 532.218 67.4361C530.352 67.4214 528.522 67.9524 526.955 68.9637C525.351 70.0025 524.06 71.458 523.222 73.1738C522.888 73.8181 522.613 74.4915 522.401 75.1857L539.757 75.2229Z" fill="white" stroke="white" stroke-width="0.5" stroke-miterlimit="10"/>
<path d="M530.09 89.0082C528.2 89.0584 526.323 88.6761 524.604 87.8905C523.123 87.2032 521.896 86.0694 521.095 84.6491C520.23 83.0632 519.804 81.2753 519.863 79.4703C519.837 77.0298 520.387 74.6174 521.468 72.4286C522.482 70.4126 524.015 68.7023 525.91 67.4734C527.778 66.236 529.976 65.587 532.218 65.6105C533.976 65.5614 535.72 65.9453 537.294 66.7282C538.691 67.4413 539.827 68.5754 540.541 69.9696C541.339 71.5247 541.736 73.253 541.698 74.9994C541.698 75.4092 541.698 75.7818 541.698 76.1916C541.698 76.6015 541.698 76.974 541.698 77.3094H520.796L520.983 76.4524H541.288L540.915 76.9368C541.225 74.9924 540.966 72.9998 540.168 71.1991C539.574 69.7196 538.495 68.4849 537.107 67.6969C535.596 66.8426 533.879 66.4175 532.143 66.4674C530.061 66.4344 528.018 67.032 526.283 68.1813C524.516 69.3268 523.086 70.9214 522.14 72.8012C521.11 74.8712 520.598 77.1595 520.647 79.4703C520.569 80.6551 520.745 81.8429 521.163 82.9544C521.582 84.066 522.233 85.0756 523.073 85.9158C525.025 87.5292 527.525 88.3298 530.053 88.1513C531.713 88.1673 533.36 87.8637 534.905 87.2571C536.331 86.7159 537.609 85.8481 538.638 84.7236L539.16 85.2825C538.146 86.458 536.867 87.3772 535.428 87.965C533.744 88.6903 531.924 89.0461 530.09 89.0082Z" fill="white" stroke="white" stroke-width="0.5" stroke-miterlimit="10"/>
<path d="M564.467 89.9768L567.453 75.0738C567.729 74.1485 567.805 73.1751 567.677 72.2181C567.548 71.2611 567.217 70.3422 566.706 69.5224C566.049 68.8242 565.238 68.2888 564.337 67.9589C563.437 67.629 562.471 67.5137 561.518 67.6223C559.197 67.5317 556.92 68.2716 555.098 69.7087C553.19 71.3868 551.934 73.6819 551.552 76.1915L548.827 89.9023H545.655L550.731 64.5672H553.904L553.381 67.1752C553.792 66.8435 554.229 66.5446 554.687 66.281C556.851 65.027 559.315 64.3831 561.816 64.4182C563.829 64.3335 565.823 64.8247 567.565 65.8339C569.039 66.7615 570.126 68.1911 570.625 69.8578C571.087 71.667 571.087 73.5627 570.625 75.3719L567.714 89.9023L564.467 89.9768Z" fill="white" stroke="white" stroke-width="0.5" stroke-miterlimit="10"/>
<path d="M561.63 65.6105C563.429 65.5277 565.214 65.9539 566.781 66.84C568.026 67.6348 568.94 68.8523 569.356 70.2677C569.773 71.8932 569.773 73.5974 569.356 75.2229L566.594 88.8591H565.698L568.46 75.2229C568.759 74.1467 568.828 73.0196 568.66 71.9154C568.493 70.8111 568.094 69.7545 567.49 68.8146C566.734 67.9708 565.789 67.3181 564.731 66.91C563.673 66.502 562.534 66.3503 561.406 66.4674C558.702 66.3596 556.05 67.2331 553.941 68.9264C551.912 70.798 550.594 73.3119 550.209 76.0426L547.633 88.8591H546.737L551.328 65.7595H552.224L550.88 72.4659L550.432 72.6894C551.378 70.4424 553.011 68.5514 555.098 67.287C557.087 66.1572 559.342 65.5784 561.63 65.6105Z" fill="white" stroke="white" stroke-width="0.5" stroke-miterlimit="10"/>
<path d="M586.19 90.1258C584.151 90.177 582.13 89.7428 580.293 88.8591C578.639 88.0403 577.273 86.7415 576.373 85.1333C575.439 83.4337 574.962 81.5207 574.992 79.582C574.949 76.8829 575.591 74.2168 576.859 71.8324C578.015 69.5542 579.79 67.647 581.982 66.3292C584.173 65.0113 586.692 64.3361 589.25 64.3809C591.152 64.3392 593.039 64.721 594.775 65.4986C596.34 66.1977 597.646 67.3708 598.507 68.8518L598.992 69.6715L596.604 71.6088L595.932 70.5284C595.308 69.5267 594.398 68.7349 593.319 68.2557C592.021 67.7081 590.622 67.4414 589.213 67.4733C587.199 67.4365 585.216 67.9797 583.502 69.0381C581.826 70.1278 580.473 71.6459 579.583 73.4345C578.587 75.342 578.087 77.4685 578.128 79.6192C578.064 80.6338 578.217 81.6504 578.577 82.6012C578.938 83.552 579.497 84.4152 580.218 85.1333C581.932 86.5418 584.125 87.2358 586.339 87.0707C587.787 87.0942 589.224 86.815 590.557 86.251C591.771 85.7578 592.847 84.978 593.692 83.9783L594.513 82.9724L596.529 85.3196L595.932 86.0275C594.813 87.4163 593.344 88.4835 591.677 89.1199C589.932 89.8135 588.067 90.1554 586.19 90.1258Z" fill="white" stroke="white" stroke-width="0.5" stroke-miterlimit="10"/>
<path d="M586.19 89.0081C584.331 89.0657 582.486 88.6692 580.815 87.8531C579.401 87.1384 578.241 86.0067 577.493 84.6117C576.646 83.086 576.221 81.3629 576.261 79.6192C576.228 77.1054 576.817 74.6223 577.978 72.3913C579.065 70.3149 580.708 68.5811 582.725 67.3837C584.742 66.1862 587.053 65.5722 589.4 65.6104C591.133 65.5683 592.855 65.9119 594.439 66.6163C595.809 67.2071 596.949 68.2273 597.686 69.5224L597.014 70.044C596.285 68.851 595.202 67.9136 593.916 67.3615C592.483 66.7325 590.928 66.4272 589.362 66.4673C587.141 66.4399 584.956 67.0336 583.054 68.1812C581.22 69.3356 579.726 70.9556 578.725 72.8756C577.656 74.9476 577.117 77.2516 577.157 79.5819C577.093 80.7486 577.275 81.9158 577.693 83.0071C578.111 84.0985 578.755 85.0896 579.583 85.9157C581.512 87.5176 583.985 88.318 586.488 88.1512C588.088 88.164 589.673 87.86 591.154 87.257C592.512 86.6722 593.723 85.7942 594.7 84.6862L595.222 85.2823C594.231 86.5006 592.947 87.449 591.49 88.0394C589.806 88.7142 588.004 89.0437 586.19 89.0081Z" fill="white" stroke="white" stroke-width="0.5" stroke-miterlimit="10"/>
<path d="M610.339 90.1258C608.281 90.1743 606.238 89.7538 604.367 88.8963C602.693 88.0802 601.302 86.7826 600.373 85.1706C599.436 83.4062 598.973 81.4293 599.03 79.4329C599.004 76.8486 599.593 74.295 600.747 71.9814C601.842 69.7957 603.505 67.943 605.561 66.6163C607.619 65.2566 610.037 64.5429 612.504 64.5672C614.445 64.5318 616.366 64.9665 618.103 65.8339C619.685 66.6844 620.983 67.9799 621.835 69.5597C622.722 71.2866 623.158 73.2086 623.104 75.1483C623.104 75.5954 623.104 76.0425 623.104 76.4896C623.104 76.9367 623.104 77.3093 623.104 77.6446V78.576H602.575C602.575 78.9113 602.575 79.2839 602.575 79.6192C602.514 80.6504 602.668 81.683 603.028 82.6514C603.388 83.6199 603.946 84.5032 604.666 85.2451C606.405 86.6616 608.624 87.3554 610.862 87.1825C612.37 87.2082 613.868 86.9294 615.266 86.3628C616.484 85.8753 617.571 85.1097 618.439 84.1274L619.26 83.1959L621.313 85.3941L620.678 86.1765C619.546 87.4927 618.112 88.5155 616.498 89.1571C614.543 89.9344 612.439 90.2654 610.339 90.1258ZM620.006 75.2228C620.127 73.9572 619.948 72.6811 619.484 71.4971C618.986 70.2305 618.063 69.1765 616.871 68.5165C615.539 67.7718 614.03 67.3986 612.504 67.436C610.626 67.4205 608.784 67.9513 607.204 68.9636C605.628 70.1051 604.39 71.6496 603.621 73.4345C603.298 74.0799 603.036 74.7533 602.837 75.4464L620.006 75.2228Z" fill="white" stroke="white" stroke-width="0.5" stroke-miterlimit="10"/>
<path d="M610.339 89.0081C608.449 89.0583 606.572 88.676 604.852 87.8904C603.379 87.1928 602.154 86.0617 601.344 84.649C600.491 83.0595 600.079 81.2718 600.149 79.4702C600.098 77.0271 600.649 74.6089 601.754 72.4285C602.755 70.415 604.275 68.7045 606.159 67.4733C608.038 66.2287 610.249 65.5795 612.504 65.6104C614.251 65.5582 615.983 65.9424 617.543 66.7281C618.94 67.4412 620.076 68.5753 620.79 69.9695C621.604 71.5184 622.003 73.2511 621.947 74.9993C621.947 75.4091 621.947 75.7817 621.947 76.1915C621.97 76.5638 621.97 76.937 621.947 77.3093H601.082L601.269 76.4523H621.537L621.201 76.9367C621.566 75.0185 621.412 73.0376 620.753 71.199C620.144 69.7169 619.053 68.4829 617.655 67.6968C616.155 66.8474 614.452 66.4223 612.728 66.4673C610.634 66.4338 608.579 67.031 606.83 68.1812C605.065 69.3177 603.645 70.9156 602.725 72.8011C601.682 74.8679 601.157 77.1563 601.194 79.4702C601.116 80.655 601.292 81.8428 601.711 82.9544C602.129 84.0659 602.78 85.0755 603.621 85.9157C605.576 87.5223 608.073 88.322 610.6 88.1512C612.261 88.1748 613.91 87.871 615.453 87.257C616.878 86.7158 618.157 85.848 619.185 84.7235L619.708 85.2824C618.707 86.4734 617.424 87.3956 615.975 87.9649C614.201 88.7372 612.273 89.094 610.339 89.0081Z" fill="white" stroke="white" stroke-width="0.5" stroke-miterlimit="10"/>
<path d="M135.751 169.037C133.115 169.066 130.496 168.611 128.025 167.696C125.749 166.865 123.657 165.599 121.866 163.97C120.144 162.324 118.773 160.347 117.835 158.158C115.896 153.443 115.896 148.156 117.835 143.441C118.773 141.253 120.144 139.276 121.866 137.629C123.657 136 125.749 134.734 128.025 133.903C133.37 131.995 139.233 132.128 144.485 134.276C146.988 135.38 149.189 137.066 150.905 139.194L144.523 144.783C143.491 143.53 142.223 142.492 140.79 141.727C139.38 141.016 137.817 140.658 136.236 140.684C134.875 140.664 133.522 140.891 132.243 141.355C131.076 141.81 130.02 142.509 129.145 143.404C128.27 144.331 127.585 145.419 127.129 146.608C126.184 149.272 126.184 152.179 127.129 154.842C127.585 156.031 128.27 157.12 129.145 158.046C130.012 158.942 131.071 159.63 132.243 160.058C133.516 160.549 134.872 160.79 136.236 160.766C137.817 160.792 139.38 160.434 140.79 159.723C142.223 158.959 143.491 157.92 144.523 156.668L150.868 162.368C149.173 164.486 146.998 166.172 144.523 167.286C141.758 168.489 138.767 169.086 135.751 169.037Z" fill="white"/>
<path d="M172.367 169.037C169.705 169.054 167.061 168.587 164.566 167.659C162.264 166.836 160.146 165.57 158.333 163.933C156.593 162.286 155.197 160.31 154.227 158.121C153.267 155.812 152.773 153.337 152.773 150.837C152.773 148.337 153.267 145.862 154.227 143.553C155.178 141.353 156.576 139.374 158.333 137.741C160.136 136.09 162.257 134.823 164.566 134.015C169.617 132.178 175.155 132.178 180.205 134.015C182.474 134.86 184.55 136.149 186.313 137.806C188.076 139.463 189.489 141.455 190.47 143.665C191.497 146.013 192.007 148.554 191.963 151.116C191.992 153.576 191.51 156.015 190.546 158.279C189.582 160.543 188.158 162.582 186.364 164.268C184.573 165.897 182.481 167.163 180.205 167.994C177.676 168.808 175.021 169.161 172.367 169.037ZM172.367 160.766C173.646 160.784 174.916 160.543 176.1 160.058C177.244 159.619 178.277 158.932 179.123 158.046C179.998 157.12 180.682 156.031 181.138 154.842C182.134 152.175 182.134 149.238 181.138 146.571C180.682 145.393 179.997 144.317 179.123 143.404C178.268 142.519 177.239 141.821 176.1 141.355C174.908 140.9 173.642 140.673 172.367 140.684C171.092 140.678 169.827 140.905 168.635 141.355C167.495 141.821 166.466 142.519 165.611 143.404C164.762 144.336 164.08 145.407 163.596 146.571C162.816 148.479 162.592 150.568 162.948 152.598C163.305 154.628 164.228 156.516 165.611 158.046C166.457 158.932 167.49 159.619 168.635 160.058C169.82 160.538 171.088 160.779 172.367 160.766Z" fill="white"/>
<path d="M197.188 168.329V133.047H205.399L219.994 156.966H215.664L229.885 133.047H238.096V168.255H228.952V146.981H230.37L219.732 164.79H215.44L204.541 146.981H206.445V168.255L197.188 168.329Z" fill="white"/>
<path d="M245.3 168.329V133.047H255.266V168.255L245.3 168.329Z" fill="white"/>
<path d="M262.32 168.329V133.047H270.495L290.09 156.556H286.358V133.047H296.137V168.255H287.925L268.479 144.82H272.211V168.255L262.32 168.329Z" fill="white"/>
<path d="M320.51 169.037C317.863 169.06 315.233 168.605 312.747 167.696C310.466 166.876 308.372 165.609 306.588 163.97C303.934 161.344 302.132 157.984 301.413 154.324C300.694 150.664 301.093 146.873 302.557 143.441C303.495 141.244 304.881 139.264 306.625 137.629C308.423 135.99 310.529 134.724 312.821 133.903C315.356 132.984 318.037 132.53 320.734 132.562C323.779 132.512 326.801 133.083 329.617 134.239C332.15 135.258 334.383 136.898 336.112 139.008L329.767 144.745C328.726 143.531 327.458 142.532 326.034 141.802C324.573 141.129 322.977 140.797 321.369 140.833C319.959 140.819 318.558 141.046 317.226 141.504C316.037 141.959 314.956 142.657 314.053 143.553C313.178 144.466 312.493 145.542 312.037 146.72C311.041 149.375 311.041 152.299 312.037 154.954C312.482 156.145 313.174 157.229 314.069 158.134C314.963 159.04 316.039 159.746 317.226 160.207C318.512 160.695 319.88 160.935 321.257 160.915C322.73 160.926 324.194 160.687 325.586 160.207C327.149 159.624 328.6 158.78 329.879 157.711L335.478 164.678C333.346 166.184 330.973 167.318 328.46 168.031C325.871 168.737 323.194 169.076 320.51 169.037ZM326.519 163.225V149.961H335.328V164.529L326.519 163.225Z" fill="white"/>
<path d="M368.697 169.037C365.887 169.041 363.089 168.678 360.373 167.957C358.063 167.373 355.858 166.43 353.841 165.162L357.126 157.711C358.823 158.773 360.656 159.6 362.575 160.17C364.575 160.827 366.666 161.166 368.771 161.176C369.89 161.191 371.006 161.066 372.093 160.803C372.778 160.626 373.407 160.28 373.922 159.797C374.286 159.386 374.485 158.856 374.482 158.307C374.495 157.921 374.401 157.54 374.21 157.204C374.019 156.869 373.738 156.593 373.4 156.407C372.509 155.873 371.539 155.483 370.526 155.252C369.331 154.917 368.025 154.619 366.606 154.321C365.166 154.023 363.745 153.637 362.351 153.166C360.97 152.732 359.652 152.118 358.432 151.34C357.259 150.578 356.276 149.559 355.558 148.359C354.76 146.954 354.372 145.354 354.439 143.739C354.423 141.693 355.035 139.691 356.193 138.002C357.512 136.162 359.323 134.729 361.418 133.866C364.162 132.74 367.113 132.207 370.078 132.301C372.377 132.299 374.669 132.561 376.908 133.084C378.99 133.557 380.99 134.335 382.843 135.394L379.782 142.845C378.209 141.98 376.544 141.292 374.818 140.796C373.249 140.364 371.63 140.138 370.003 140.125C368.879 140.09 367.756 140.241 366.681 140.573C365.989 140.765 365.366 141.153 364.889 141.69C364.524 142.144 364.326 142.71 364.33 143.292C364.33 143.665 364.431 144.032 364.621 144.353C364.811 144.674 365.085 144.938 365.412 145.118C366.307 145.636 367.276 146.013 368.286 146.236L372.205 147.13C373.624 147.428 375.042 147.8 376.498 148.248C377.821 148.679 379.077 149.294 380.23 150.073C381.408 150.801 382.384 151.813 383.067 153.017C383.86 154.424 384.247 156.023 384.187 157.636C384.184 159.646 383.573 161.607 382.432 163.262C381.141 165.122 379.339 166.571 377.244 167.435C374.537 168.556 371.626 169.102 368.697 169.037Z" fill="white"/>
<path d="M406.694 169.037C404.019 169.053 401.363 168.586 398.855 167.659C396.566 166.832 394.462 165.566 392.659 163.933C390.919 162.286 389.524 160.31 388.554 158.121C387.594 155.812 387.1 153.337 387.1 150.837C387.1 148.337 387.594 145.862 388.554 143.553C389.505 141.353 390.903 139.374 392.659 137.741C394.455 136.099 396.562 134.832 398.855 134.015C401.359 133.069 404.017 132.602 406.694 132.637C409.358 132.598 412.005 133.066 414.495 134.015C416.792 134.824 418.9 136.091 420.691 137.741C422.42 139.397 423.814 141.371 424.796 143.553C425.812 145.904 426.309 148.445 426.252 151.005C426.298 153.563 425.801 156.102 424.796 158.456C423.809 160.636 422.415 162.608 420.691 164.268C418.893 165.907 416.787 167.174 414.495 167.994C411.979 168.811 409.336 169.165 406.694 169.037ZM406.694 160.766C407.973 160.784 409.243 160.543 410.426 160.058C411.571 159.619 412.603 158.932 413.45 158.046C414.324 157.12 415.009 156.031 415.465 154.842C416.46 152.175 416.46 149.239 415.465 146.571C415.009 145.393 414.324 144.317 413.45 143.404C412.595 142.519 411.565 141.821 410.426 141.355C409.235 140.9 407.969 140.673 406.694 140.684C405.419 140.678 404.154 140.905 402.961 141.355C401.822 141.821 400.792 142.519 399.938 143.404C399.063 144.317 398.378 145.393 397.922 146.571C396.978 149.247 396.978 152.166 397.922 154.842C398.378 156.031 399.063 157.12 399.938 158.046C400.784 158.932 401.817 159.619 402.961 160.058C404.146 160.538 405.415 160.779 406.694 160.766Z" fill="white"/>
<path d="M449.282 169.037C446.619 169.054 443.976 168.587 441.481 167.659C439.178 166.836 437.061 165.57 435.247 163.933C433.507 162.286 432.112 160.31 431.142 158.121C430.182 155.812 429.688 153.337 429.688 150.837C429.688 148.337 430.182 145.862 431.142 143.553C432.093 141.353 433.491 139.374 435.247 137.741C437.051 136.09 439.172 134.823 441.481 134.015C446.531 132.178 452.069 132.178 457.12 134.015C459.388 134.86 461.465 136.149 463.228 137.806C464.99 139.463 466.403 141.455 467.384 143.665C468.431 146.007 468.941 148.553 468.877 151.116C468.93 153.679 468.42 156.222 467.384 158.568C466.41 160.755 465.015 162.729 463.278 164.38C461.487 166.009 459.396 167.275 457.12 168.106C454.584 168.882 451.929 169.197 449.282 169.037ZM449.282 160.766C450.561 160.784 451.83 160.543 453.014 160.058C454.163 159.628 455.198 158.94 456.037 158.046C456.912 157.12 457.597 156.031 458.053 154.842C459.048 152.175 459.048 149.238 458.053 146.571C457.597 145.393 456.912 144.317 456.037 143.404C455.19 142.511 454.159 141.811 453.014 141.355C451.823 140.9 450.557 140.673 449.282 140.684C448.007 140.678 446.742 140.905 445.549 141.355C444.41 141.821 443.38 142.519 442.526 143.404C441.676 144.328 441.005 145.402 440.548 146.571C439.552 149.238 439.552 152.175 440.548 154.842C441.005 156.022 441.675 157.108 442.526 158.046C443.372 158.932 444.405 159.619 445.549 160.058C446.734 160.538 448.003 160.779 449.282 160.766Z" fill="white"/>
<path d="M474.103 168.329V133.047H482.314L501.76 156.481H498.028V133.047H507.807V168.255H499.596L480.149 144.82H483.882V168.255L474.103 168.329Z" fill="white"/>
</g>
<defs>
<clipPath id="clip0_493_298">
<rect width="624" height="169" fill="white"/>
</clipPath>
</defs>
</svg>
