<svg width="455" height="19" viewBox="0 0 455 19" fill="none" xmlns="http://www.w3.org/2000/svg">
    <g id="Frame" clip-path="url(#clip0_304_43)">
        <path id="Vector"
            d="M0 0H3.69248C8.61579 0 11.0774 1.47631 11.0774 4.45469C11.0934 5.01725 10.9852 5.57612 10.7611 6.0881C10.537 6.60008 10.203 7.05144 9.78506 7.40738C8.66944 8.25484 7.35578 8.7737 5.9818 8.90946C7.62566 8.91933 9.22424 9.4721 10.5482 10.4885C11.0203 10.9042 11.3986 11.4236 11.656 12.0095C11.9135 12.5953 12.0437 13.2333 12.0375 13.8777C12.064 14.9801 11.7169 16.0569 11.0572 16.9187C10.3976 17.7805 9.46768 18.372 8.43114 18.5892C7.04198 18.8798 5.62564 19.0047 4.20941 18.9614H0.024603L0 0ZM2.59703 8.63984H3.27397C4.64381 8.78891 6.02203 8.45441 7.18803 7.68985C7.56776 7.29311 7.85767 6.81287 8.03655 6.28422C8.21543 5.75558 8.27877 5.1919 8.22192 4.63444C8.26695 3.85789 8.12741 3.08175 7.81572 2.37497C7.55134 1.81798 7.11891 1.36695 6.5849 1.09118C5.69583 0.715321 4.73483 0.561483 3.77861 0.641892C3.43398 0.641892 2.90472 0.641892 2.54778 0.641892L2.59703 8.63984ZM2.59703 18.1655H4.89867C5.46194 18.235 6.03284 18.1869 6.57806 18.0237C7.12328 17.8606 7.63191 17.5859 8.07423 17.2155C8.84399 16.2668 9.22428 15.0399 9.13272 13.8007C9.17361 13.1708 9.08496 12.5391 8.87268 11.9479C8.6604 11.3568 8.3294 10.8198 7.90189 10.3729C6.65855 9.50874 5.16732 9.11877 3.68016 9.26888H2.54778L2.59703 18.1655Z"
            fill="url(#paint0_linear_304_43)" />
        <path id="Vector_2"
            d="M26.9552 18.3068H32.5309V18.9614H21.9827V0H32.5801V0.641892H24.5797V8.66554H29.8354V9.32028H24.5797V18.3068H26.9552Z"
            fill="url(#paint1_linear_304_43)" />
        <path id="Vector_3"
            d="M53.7871 16.2014C53.0582 17.0871 52.1506 17.7938 51.1292 18.271C50.1079 18.7481 48.9981 18.9839 47.8792 18.9615C46.7385 19.0074 45.6006 18.8141 44.533 18.3929C43.4653 17.9717 42.4895 17.3312 41.6635 16.5095C40.8548 15.6299 40.2261 14.5879 39.8156 13.4469C39.4051 12.3059 39.2214 11.0897 39.2757 9.87237C39.2498 8.09331 39.6295 6.33329 40.3834 4.73724C41.0151 3.22889 42.105 1.97924 43.4851 1.18113C44.8198 0.402946 46.3255 0.00037797 47.8545 0.0129205C49.0875 0.00109836 50.3059 0.291281 51.4116 0.860183C52.3011 1.29706 53.0966 1.91714 53.7502 2.68313V2.76016L53.2456 3.26085C52.9838 2.83803 52.655 2.46472 52.2732 2.15682C51.1207 1.20733 49.6924 0.695658 48.2238 0.706136C47.3646 0.683927 46.5137 0.886068 45.7485 1.29412C44.9833 1.70217 44.3279 2.3032 43.8421 3.04263C42.6384 5.0284 42.0695 7.36119 42.2174 9.70547C42.0764 11.9629 42.7041 14.1997 43.9897 16.0217C44.5183 16.7124 45.1911 17.2681 45.9569 17.6463C46.7227 18.0245 47.5612 18.2153 48.4084 18.2041C49.4064 18.1915 50.3896 17.9504 51.2885 17.4981C52.1036 17.085 52.7936 16.4453 53.2825 15.6494L53.7871 16.2014Z"
            fill="url(#paint2_linear_304_43)" />
        <path id="Vector_4"
            d="M71.5726 12.0033H64.8892L62.3414 18.9614H61.3813L68.9017 0H69.4309L77.1482 18.9614H74.305L72.9388 15.4824L71.5726 12.0033ZM71.3511 11.3743L68.1632 3.42768L65.0615 11.3743H71.3511Z"
            fill="url(#paint3_linear_304_43)" />
        <path id="Vector_5"
            d="M99.9186 0V10.6939C99.9252 11.8856 99.8305 13.0757 99.6355 14.25C99.4461 15.0904 99.0567 15.8675 98.5031 16.5094C97.8487 17.3242 96.9995 17.9443 96.0415 18.3068C93.5686 19.2414 90.8492 19.1727 88.4227 18.1142C87.4475 17.6509 86.6376 16.8781 86.1087 15.9061C85.555 14.7968 85.3239 13.5429 85.444 12.2986L85.5795 10.3729V0H88.1519V10.4628C88.0913 11.911 88.1407 13.3619 88.2996 14.802C88.49 15.7104 89.0049 16.5091 89.7396 17.0358C90.7282 17.7333 91.9078 18.0759 93.0998 18.0114C94.1351 18.0291 95.1612 17.8054 96.103 17.3567C96.8927 17.0161 97.587 16.473 98.1216 15.7777C98.5394 15.1816 98.8291 14.4985 98.9708 13.775C99.1469 12.7238 99.2334 11.6584 99.2293 10.5912V0H99.9186Z"
            fill="url(#paint4_linear_304_43)" />
        <path id="Vector_6"
            d="M120.56 14.3527C120.514 15.0574 120.325 15.7439 120.004 16.3661C119.684 16.9883 119.24 17.5317 118.701 17.9602C117.507 18.8367 116.033 19.1957 114.59 18.9615C113.613 18.7852 112.681 18.4057 111.848 17.8455C111.014 17.2853 110.298 16.5559 109.741 15.7007L110.221 15.1358C111.587 17.1642 112.621 17.9601 114.43 18.2683C114.946 18.3759 115.478 18.3638 115.988 18.2329C116.499 18.102 116.975 17.8555 117.384 17.5109C117.727 17.2313 118.013 16.8827 118.224 16.4857C118.436 16.0888 118.569 15.6515 118.615 15.2C118.672 14.7795 118.644 14.3513 118.534 13.9425C118.424 13.5336 118.233 13.1531 117.975 12.825C117.095 11.8926 116.072 11.1201 114.947 10.5398C113.917 9.93399 112.923 9.26526 111.969 8.53715C111.333 8.00235 110.83 7.3153 110.504 6.53445C110.202 5.75791 110.092 4.91485 110.184 4.08246C110.227 3.47873 110.393 2.89149 110.671 2.36012C110.949 1.82874 111.333 1.36548 111.796 1.00135C112.275 0.624371 112.821 0.349839 113.401 0.193418C113.982 0.0369962 114.587 0.00181829 115.181 0.0899095C115.883 0.163156 116.567 0.367499 117.2 0.69325C117.935 1.12095 118.563 1.72351 119.033 2.45203L118.48 2.92702C118.329 2.68647 118.16 2.45897 117.975 2.24666C117.642 1.81756 117.23 1.46323 116.762 1.20507C116.295 0.94691 115.782 0.790216 115.255 0.744573C114.883 0.657263 114.497 0.653037 114.123 0.732036C113.749 0.811035 113.396 0.971528 113.085 1.20303C112.775 1.43454 112.515 1.7318 112.323 2.07537C112.13 2.41894 112.01 2.80104 111.969 3.19664C111.93 3.59649 111.974 4.00029 112.097 4.38107C112.22 4.76186 112.42 5.11081 112.682 5.40471C113.571 6.34095 114.592 7.12901 115.71 7.74121C116.766 8.35185 117.786 9.02926 118.763 9.76961C119.409 10.2614 119.915 10.9269 120.227 11.6953C120.558 12.5357 120.673 13.4518 120.56 14.3527Z"
            fill="url(#paint5_linear_304_43)" />
        <path id="Vector_7"
            d="M135.477 18.3068H141.065V18.9614H130.517V0H141.115V0.641892H133.114V8.66554H138.357V9.32028H133.114V18.3068H135.477Z"
            fill="url(#paint6_linear_304_43)" />
        <path id="Vector_8" d="M174.027 18.3324V18.9614H161.374V0H164.008V18.3324H174.027Z"
            fill="url(#paint7_linear_304_43)" />
        <path id="Vector_9"
            d="M180.969 2.55471C181.769 1.70725 182.729 1.04166 183.788 0.599803C184.847 0.157943 185.983 -0.0506356 187.123 -0.0128621C188.316 -0.0359235 189.501 0.1937 190.607 0.662174C191.713 1.13065 192.716 1.82822 193.556 2.71267C194.396 3.59712 195.055 4.6501 195.494 5.80789C195.932 6.96567 196.141 8.20423 196.108 9.44862C196.155 10.7209 195.946 11.9894 195.495 13.1724C195.043 14.3554 194.359 15.4265 193.486 16.3168C191.79 18.0049 189.535 18.9468 187.19 18.9468C184.846 18.9468 182.591 18.0049 180.895 16.3168C180 15.4165 179.298 14.3286 178.836 13.1248C178.373 11.9211 178.16 10.6288 178.212 9.33304C178.169 8.06181 178.394 6.7963 178.87 5.62532C179.347 4.45434 180.063 3.40631 180.969 2.55471ZM182.839 16.0601C183.331 16.8064 184.004 17.4038 184.788 17.7916C185.573 18.1794 186.442 18.3438 187.307 18.2682C188.156 18.3105 189.002 18.1307 189.767 17.745C190.533 17.3594 191.193 16.7801 191.689 16.0601C192.834 14.5838 193.105 12.4014 193.105 9.48717C193.105 6.57298 192.858 4.4547 191.714 2.95267C191.191 2.19847 190.494 1.59529 189.686 1.20001C188.879 0.804726 187.988 0.630334 187.098 0.693203C186.265 0.639816 185.433 0.815688 184.686 1.20322C183.938 1.59076 183.302 2.17639 182.839 2.90135C181.743 4.90551 181.166 7.1732 181.166 9.48074C181.166 11.7883 181.743 14.056 182.839 16.0601Z"
            fill="url(#paint8_linear_304_43)" />
        <path id="Vector_10"
            d="M219.764 6.59823e-05L217.389 5.87974L212.109 18.9615H211.284L205.13 4.30071L204.933 3.90274C204.835 3.65882 204.736 3.35075 204.576 2.97845C204.485 2.69829 204.37 2.42752 204.231 2.16966L203.345 6.59823e-05H205.991L207.555 3.6075L212.65 15.9318L216.749 5.66152C216.995 5.05814 217.192 4.50617 217.352 4.03117L218.891 -0.0256348L219.764 6.59823e-05Z"
            fill="url(#paint9_linear_304_43)" />
        <path id="Vector_11"
            d="M234.3 18.3068H239.876V18.9614H229.328V0H239.925V0.641892H231.925V8.66554H237.18V9.32028H231.925V18.3068H234.3Z"
            fill="url(#paint10_linear_304_43)" />
        <path id="Vector_12" d="M263.446 0V18.9614H260.825V0H263.446Z" fill="url(#paint11_linear_304_43)" />
        <path id="Vector_13"
            d="M284.124 14.3527C284.074 15.0577 283.882 15.7436 283.559 16.3654C283.237 16.9871 282.792 17.5307 282.253 17.9602C281.059 18.8367 279.585 19.1957 278.142 18.9615C277.166 18.7852 276.233 18.4057 275.4 17.8455C274.567 17.2853 273.85 16.5559 273.293 15.7007L273.773 15.1358C275.139 17.1642 276.235 17.9601 277.982 18.2683C278.498 18.3759 279.03 18.3638 279.54 18.2329C280.051 18.102 280.528 17.8555 280.936 17.5109C281.282 17.2334 281.569 16.8853 281.781 16.4879C281.992 16.0906 282.124 15.6523 282.167 15.2C282.226 14.7804 282.2 14.3527 282.092 13.9439C281.984 13.5352 281.796 13.1542 281.54 12.825C280.652 11.8962 279.625 11.1244 278.499 10.5398C277.471 9.93756 276.481 9.26869 275.533 8.53715C274.89 8.00948 274.386 7.32044 274.068 6.53445C273.757 5.76068 273.642 4.91602 273.736 4.08246C273.779 3.47873 273.945 2.89149 274.223 2.36012C274.501 1.82874 274.885 1.36548 275.348 1.00135C275.827 0.624371 276.373 0.349839 276.954 0.193418C277.535 0.0369962 278.139 0.00181829 278.733 0.0899095C279.435 0.163156 280.119 0.367499 280.752 0.69325C281.489 1.12357 282.121 1.72544 282.598 2.45203L282.032 2.92702C281.882 2.68961 281.717 2.4624 281.54 2.24666C281.204 1.81828 280.789 1.46457 280.319 1.20656C279.85 0.948549 279.336 0.791426 278.807 0.744573C278.397 0.653869 277.972 0.661088 277.565 0.765573C277.158 0.870057 276.779 1.06914 276.456 1.34799C275.933 1.81808 275.602 2.47982 275.533 3.19664C275.49 3.59573 275.53 3.9999 275.651 4.38115C275.772 4.7624 275.971 5.11161 276.235 5.40471C277.123 6.34095 278.144 7.12901 279.263 7.74121C280.319 8.35185 281.338 9.02926 282.315 9.76961C282.961 10.2614 283.468 10.9269 283.78 11.6953C284.115 12.5346 284.234 13.4507 284.124 14.3527Z"
            fill="url(#paint12_linear_304_43)" />
        <path id="Vector_14"
            d="M308.384 2.55473C309.185 1.70854 310.146 1.0438 311.204 0.602027C312.263 0.160256 313.398 -0.0490559 314.538 -0.0128324C315.689 -0.0482349 316.835 0.161151 317.905 0.602575C318.976 1.044 319.949 1.70822 320.766 2.55473C321.69 3.42483 322.416 4.49822 322.893 5.6972C323.37 6.89618 323.585 8.19077 323.523 9.4872C323.571 10.7607 323.361 12.0305 322.907 13.2139C322.454 14.3973 321.766 15.4676 320.889 16.3554C319.193 18.0435 316.938 18.9853 314.593 18.9853C312.249 18.9853 309.994 18.0435 308.298 16.3554C307.407 15.4525 306.709 14.3638 306.249 13.1604C305.788 11.9571 305.577 10.6661 305.627 9.37162C305.582 8.09433 305.805 6.82214 306.281 5.64447C306.757 4.4668 307.475 3.41222 308.384 2.55473ZM310.304 16.0602C310.796 16.8065 311.468 17.4038 312.253 17.7916C313.038 18.1794 313.907 18.3438 314.772 18.2682C315.623 18.3104 316.47 18.1305 317.237 17.745C318.004 17.3594 318.667 16.7803 319.166 16.0602C320.298 14.5838 320.581 12.4014 320.581 9.4872C320.581 6.57301 320.323 4.45473 319.191 2.9527C318.668 2.1985 317.971 1.59532 317.163 1.20004C316.356 0.804756 315.465 0.630364 314.575 0.693233C313.74 0.637543 312.905 0.812323 312.156 1.19996C311.406 1.5876 310.767 2.17445 310.304 2.90138C309.215 4.90799 308.642 7.17472 308.642 9.48077C308.642 11.7868 309.215 14.0536 310.304 16.0602Z"
            fill="url(#paint13_linear_304_43)" />
        <path id="Vector_15"
            d="M337.345 7.2144e-05C338.749 -0.0540008 340.154 0.0972107 341.517 0.449365C342.501 0.70204 343.399 1.23034 344.115 1.97707C344.761 2.71688 345.113 3.68527 345.099 4.68584C345.109 5.27368 344.999 5.857 344.776 6.39705C344.553 6.9371 344.223 7.42155 343.807 7.81827C342.752 8.82038 341.421 9.44944 340.004 9.6156C341.476 10.3024 342.728 11.4165 343.61 12.8251C344.825 14.749 345.832 16.8069 346.613 18.9615H344.545C344.336 18.0885 341.665 9.97502 336.742 9.97502H335.966V18.9615H333.394V7.2144e-05H337.345ZM338.083 9.32036C338.707 9.2793 339.321 9.14081 339.905 8.90954C340.377 8.73819 340.8 8.44694 341.136 8.06219C341.482 7.70157 341.743 7.26213 341.899 6.77841C342.1 6.17657 342.192 5.54102 342.17 4.90414C342.233 3.78403 341.9 2.67856 341.234 1.79732C340.607 1.00138 339.167 0.74461 337.074 0.74461H335.942V9.26895L338.083 9.32036Z"
            fill="url(#paint14_linear_304_43)" />
        <path id="Vector_16"
            d="M367.943 10.8736H370.467V13.9419C370.472 14.499 370.358 15.0504 370.135 15.5565C369.912 16.0626 369.584 16.5108 369.174 16.869C368.647 17.3914 368.045 17.8246 367.39 18.1528C366.088 18.6955 364.704 18.9912 363.303 19.0257C362.143 19.0652 360.988 18.8555 359.909 18.4098C358.83 17.964 357.85 17.2918 357.031 16.4346C356.211 15.5775 355.57 14.5539 355.145 13.4272C354.721 12.3005 354.523 11.0949 354.564 9.88519C354.531 7.37096 355.375 4.92977 356.94 3.0169C357.724 2.04284 358.712 1.26997 359.829 0.757974C360.945 0.245976 362.159 0.00858426 363.377 0.0642102C364.463 0.0371367 365.541 0.260117 366.534 0.717229C367.528 1.17434 368.412 1.85433 369.125 2.7088V2.78583L368.547 3.41487C368.307 3.03242 368.017 2.68676 367.685 2.38786C367.151 1.84682 366.519 1.42182 365.826 1.13753C365.133 0.853244 364.392 0.715363 363.648 0.731803C362.842 0.724595 362.044 0.89068 361.303 1.2198C360.562 1.54893 359.893 2.034 359.34 2.64463C358.109 3.92841 357.494 6.17501 357.494 9.43582C357.494 12.6966 358.097 14.9689 359.291 16.3426C359.835 16.9937 360.509 17.5127 361.266 17.8632C362.023 18.2136 362.844 18.3869 363.672 18.371C364.527 18.3906 365.373 18.1876 366.134 17.7804C366.765 17.515 367.285 17.0233 367.599 16.3939C367.887 15.7435 368.018 15.0295 367.98 14.3142L367.943 10.8736Z"
            fill="url(#paint15_linear_304_43)" />
        <path id="Vector_17"
            d="M388.154 12.0033H381.47L378.922 18.9614H377.962L385.483 0H386.012L393.729 18.9614H390.849L389.483 15.4824L388.154 12.0033ZM387.932 11.3743L384.757 3.42768L381.643 11.3743H387.932Z"
            fill="url(#paint16_linear_304_43)" />
        <path id="Vector_18"
            d="M417.46 0V18.9614H416.98L404.241 1.50201V18.4864H403.662V0H406.382L416.697 14.404V0H417.46Z"
            fill="url(#paint17_linear_304_43)" />
        <path id="Vector_19" d="M430.617 0V18.9614H427.983V0H430.617Z" fill="url(#paint18_linear_304_43)" />
        <path id="Vector_20"
            d="M454.988 16.2013C454.261 17.0867 453.356 17.7933 452.337 18.2705C451.317 18.7477 450.209 18.9837 449.092 18.9614C447.948 19.002 446.808 18.8012 445.739 18.3711C444.671 17.9409 443.698 17.2902 442.877 16.4581C442.069 15.5774 441.439 14.5354 441.027 13.3949C440.615 12.2544 440.427 11.0387 440.476 9.82085C440.455 8.0408 440.839 6.28084 441.596 4.68572C442.228 3.17738 443.318 1.9278 444.698 1.12969C446.031 0.348165 447.538 -0.0547134 449.068 -0.0385973C450.3 -0.0504194 451.519 0.239841 452.625 0.808744C453.514 1.24562 454.31 1.8657 454.963 2.6317V2.70872L454.459 3.20941C454.196 2.78311 453.863 2.40923 453.474 2.10538C452.327 1.15406 450.902 0.641985 449.437 0.654696C448.566 0.628005 447.703 0.831759 446.928 1.24707C446.153 1.66237 445.492 2.27567 445.006 3.02966C443.802 5.01544 443.233 7.34822 443.381 9.69251C443.234 11.9507 443.862 14.1898 445.154 16.0087C445.682 16.6994 446.355 17.2551 447.121 17.6333C447.887 18.0116 448.725 18.2023 449.572 18.1911C450.566 18.1783 451.545 17.9372 452.44 17.4851C453.26 17.0801 453.952 16.4386 454.434 15.6364L454.988 16.2013Z"
            fill="url(#paint19_linear_304_43)" />
    </g>
    <defs>
        <linearGradient id="paint0_linear_304_43" x1="-210.533" y1="-147.699" x2="457.981" y2="302.837"
            gradientUnits="userSpaceOnUse">
            <stop offset="0.01" stop-color="#D8B376" />
            <stop offset="0.17" stop-color="#DCB97A" />
            <stop offset="0.39" stop-color="#E9CA86" />
            <stop offset="0.5" stop-color="#F1D58D" />
            <stop offset="0.65" stop-color="#CDA860" />
            <stop offset="0.79" stop-color="#AD8139" />
            <stop offset="0.82" stop-color="#B48941" />
            <stop offset="0.88" stop-color="#C6A058" />
            <stop offset="0.96" stop-color="#E3C47C" />
            <stop offset="0.99" stop-color="#F1D58D" />
        </linearGradient>
        <linearGradient id="paint1_linear_304_43" x1="-202.791" y1="-159.202" x2="465.724" y2="291.348"
            gradientUnits="userSpaceOnUse">
            <stop offset="0.01" stop-color="#D8B376" />
            <stop offset="0.17" stop-color="#DCB97A" />
            <stop offset="0.39" stop-color="#E9CA86" />
            <stop offset="0.5" stop-color="#F1D58D" />
            <stop offset="0.65" stop-color="#CDA860" />
            <stop offset="0.79" stop-color="#AD8139" />
            <stop offset="0.82" stop-color="#B48941" />
            <stop offset="0.88" stop-color="#C6A058" />
            <stop offset="0.96" stop-color="#E3C47C" />
            <stop offset="0.99" stop-color="#F1D58D" />
        </linearGradient>
        <linearGradient id="paint2_linear_304_43" x1="-196.046" y1="-169.202" x2="472.468" y2="281.347"
            gradientUnits="userSpaceOnUse">
            <stop offset="0.01" stop-color="#D8B376" />
            <stop offset="0.17" stop-color="#DCB97A" />
            <stop offset="0.39" stop-color="#E9CA86" />
            <stop offset="0.5" stop-color="#F1D58D" />
            <stop offset="0.65" stop-color="#CDA860" />
            <stop offset="0.79" stop-color="#AD8139" />
            <stop offset="0.82" stop-color="#B48941" />
            <stop offset="0.88" stop-color="#C6A058" />
            <stop offset="0.96" stop-color="#E3C47C" />
            <stop offset="0.99" stop-color="#F1D58D" />
        </linearGradient>
        <linearGradient id="paint3_linear_304_43" x1="-190.175" y1="-177.906" x2="478.34" y2="272.642"
            gradientUnits="userSpaceOnUse">
            <stop offset="0.01" stop-color="#D8B376" />
            <stop offset="0.17" stop-color="#DCB97A" />
            <stop offset="0.39" stop-color="#E9CA86" />
            <stop offset="0.5" stop-color="#F1D58D" />
            <stop offset="0.65" stop-color="#CDA860" />
            <stop offset="0.79" stop-color="#AD8139" />
            <stop offset="0.82" stop-color="#B48941" />
            <stop offset="0.88" stop-color="#C6A058" />
            <stop offset="0.96" stop-color="#E3C47C" />
            <stop offset="0.99" stop-color="#F1D58D" />
        </linearGradient>
        <linearGradient id="paint4_linear_304_43" x1="-180.489" y1="-192.285" x2="488.027" y2="258.251"
            gradientUnits="userSpaceOnUse">
            <stop offset="0.01" stop-color="#D8B376" />
            <stop offset="0.17" stop-color="#DCB97A" />
            <stop offset="0.39" stop-color="#E9CA86" />
            <stop offset="0.5" stop-color="#F1D58D" />
            <stop offset="0.65" stop-color="#CDA860" />
            <stop offset="0.79" stop-color="#AD8139" />
            <stop offset="0.82" stop-color="#B48941" />
            <stop offset="0.88" stop-color="#C6A058" />
            <stop offset="0.96" stop-color="#E3C47C" />
            <stop offset="0.99" stop-color="#F1D58D" />
        </linearGradient>
        <linearGradient id="paint5_linear_304_43" x1="-173.83" y1="-202.17" x2="494.685" y2="248.38"
            gradientUnits="userSpaceOnUse">
            <stop offset="0.01" stop-color="#D8B376" />
            <stop offset="0.17" stop-color="#DCB97A" />
            <stop offset="0.39" stop-color="#E9CA86" />
            <stop offset="0.5" stop-color="#F1D58D" />
            <stop offset="0.65" stop-color="#CDA860" />
            <stop offset="0.79" stop-color="#AD8139" />
            <stop offset="0.82" stop-color="#B48941" />
            <stop offset="0.88" stop-color="#C6A058" />
            <stop offset="0.96" stop-color="#E3C47C" />
            <stop offset="0.99" stop-color="#F1D58D" />
        </linearGradient>
        <linearGradient id="paint6_linear_304_43" x1="-166.888" y1="-212.453" x2="501.626" y2="238.084"
            gradientUnits="userSpaceOnUse">
            <stop offset="0.01" stop-color="#D8B376" />
            <stop offset="0.17" stop-color="#DCB97A" />
            <stop offset="0.39" stop-color="#E9CA86" />
            <stop offset="0.5" stop-color="#F1D58D" />
            <stop offset="0.65" stop-color="#CDA860" />
            <stop offset="0.79" stop-color="#AD8139" />
            <stop offset="0.82" stop-color="#B48941" />
            <stop offset="0.88" stop-color="#C6A058" />
            <stop offset="0.96" stop-color="#E3C47C" />
            <stop offset="0.99" stop-color="#F1D58D" />
        </linearGradient>
        <linearGradient id="paint7_linear_304_43" x1="-158.001" y1="-225.65" x2="510.514" y2="224.898"
            gradientUnits="userSpaceOnUse">
            <stop offset="0.01" stop-color="#D8B376" />
            <stop offset="0.17" stop-color="#DCB97A" />
            <stop offset="0.39" stop-color="#E9CA86" />
            <stop offset="0.5" stop-color="#F1D58D" />
            <stop offset="0.65" stop-color="#CDA860" />
            <stop offset="0.79" stop-color="#AD8139" />
            <stop offset="0.82" stop-color="#B48941" />
            <stop offset="0.88" stop-color="#C6A058" />
            <stop offset="0.96" stop-color="#E3C47C" />
            <stop offset="0.99" stop-color="#F1D58D" />
        </linearGradient>
        <linearGradient id="paint8_linear_304_43" x1="-149.903" y1="-237.667" x2="518.613" y2="212.882"
            gradientUnits="userSpaceOnUse">
            <stop offset="0.01" stop-color="#D8B376" />
            <stop offset="0.17" stop-color="#DCB97A" />
            <stop offset="0.39" stop-color="#E9CA86" />
            <stop offset="0.5" stop-color="#F1D58D" />
            <stop offset="0.65" stop-color="#CDA860" />
            <stop offset="0.79" stop-color="#AD8139" />
            <stop offset="0.82" stop-color="#B48941" />
            <stop offset="0.88" stop-color="#C6A058" />
            <stop offset="0.96" stop-color="#E3C47C" />
            <stop offset="0.99" stop-color="#F1D58D" />
        </linearGradient>
        <linearGradient id="paint9_linear_304_43" x1="-140.536" y1="-251.57" x2="527.98" y2="198.978"
            gradientUnits="userSpaceOnUse">
            <stop offset="0.01" stop-color="#D8B376" />
            <stop offset="0.17" stop-color="#DCB97A" />
            <stop offset="0.39" stop-color="#E9CA86" />
            <stop offset="0.5" stop-color="#F1D58D" />
            <stop offset="0.65" stop-color="#CDA860" />
            <stop offset="0.79" stop-color="#AD8139" />
            <stop offset="0.82" stop-color="#B48941" />
            <stop offset="0.88" stop-color="#C6A058" />
            <stop offset="0.96" stop-color="#E3C47C" />
            <stop offset="0.99" stop-color="#F1D58D" />
        </linearGradient>
        <linearGradient id="paint10_linear_304_43" x1="-134.21" y1="-260.941" x2="534.305" y2="189.596"
            gradientUnits="userSpaceOnUse">
            <stop offset="0.01" stop-color="#D8B376" />
            <stop offset="0.17" stop-color="#DCB97A" />
            <stop offset="0.39" stop-color="#E9CA86" />
            <stop offset="0.5" stop-color="#F1D58D" />
            <stop offset="0.65" stop-color="#CDA860" />
            <stop offset="0.79" stop-color="#AD8139" />
            <stop offset="0.82" stop-color="#B48941" />
            <stop offset="0.88" stop-color="#C6A058" />
            <stop offset="0.96" stop-color="#E3C47C" />
            <stop offset="0.99" stop-color="#F1D58D" />
        </linearGradient>
        <linearGradient id="paint11_linear_304_43" x1="-125.114" y1="-274.447" x2="543.401" y2="176.103"
            gradientUnits="userSpaceOnUse">
            <stop offset="0.01" stop-color="#D8B376" />
            <stop offset="0.17" stop-color="#DCB97A" />
            <stop offset="0.39" stop-color="#E9CA86" />
            <stop offset="0.5" stop-color="#F1D58D" />
            <stop offset="0.65" stop-color="#CDA860" />
            <stop offset="0.79" stop-color="#AD8139" />
            <stop offset="0.82" stop-color="#B48941" />
            <stop offset="0.88" stop-color="#C6A058" />
            <stop offset="0.96" stop-color="#E3C47C" />
            <stop offset="0.99" stop-color="#F1D58D" />
        </linearGradient>
        <linearGradient id="paint12_linear_304_43" x1="-119.735" y1="-282.431" x2="548.78" y2="168.117"
            gradientUnits="userSpaceOnUse">
            <stop offset="0.01" stop-color="#D8B376" />
            <stop offset="0.17" stop-color="#DCB97A" />
            <stop offset="0.39" stop-color="#E9CA86" />
            <stop offset="0.5" stop-color="#F1D58D" />
            <stop offset="0.65" stop-color="#CDA860" />
            <stop offset="0.79" stop-color="#AD8139" />
            <stop offset="0.82" stop-color="#B48941" />
            <stop offset="0.88" stop-color="#C6A058" />
            <stop offset="0.96" stop-color="#E3C47C" />
            <stop offset="0.99" stop-color="#F1D58D" />
        </linearGradient>
        <linearGradient id="paint13_linear_304_43" x1="-107.783" y1="-300.162" x2="560.733" y2="150.385"
            gradientUnits="userSpaceOnUse">
            <stop offset="0.01" stop-color="#D8B376" />
            <stop offset="0.17" stop-color="#DCB97A" />
            <stop offset="0.39" stop-color="#E9CA86" />
            <stop offset="0.5" stop-color="#F1D58D" />
            <stop offset="0.65" stop-color="#CDA860" />
            <stop offset="0.79" stop-color="#AD8139" />
            <stop offset="0.82" stop-color="#B48941" />
            <stop offset="0.88" stop-color="#C6A058" />
            <stop offset="0.96" stop-color="#E3C47C" />
            <stop offset="0.99" stop-color="#F1D58D" />
        </linearGradient>
        <linearGradient id="paint14_linear_304_43" x1="-100.201" y1="-311.419" x2="568.313" y2="139.129"
            gradientUnits="userSpaceOnUse">
            <stop offset="0.01" stop-color="#D8B376" />
            <stop offset="0.17" stop-color="#DCB97A" />
            <stop offset="0.39" stop-color="#E9CA86" />
            <stop offset="0.5" stop-color="#F1D58D" />
            <stop offset="0.65" stop-color="#CDA860" />
            <stop offset="0.79" stop-color="#AD8139" />
            <stop offset="0.82" stop-color="#B48941" />
            <stop offset="0.88" stop-color="#C6A058" />
            <stop offset="0.96" stop-color="#E3C47C" />
            <stop offset="0.99" stop-color="#F1D58D" />
        </linearGradient>
        <linearGradient id="paint15_linear_304_43" x1="-91.7207" y1="-324.002" x2="576.795" y2="126.533"
            gradientUnits="userSpaceOnUse">
            <stop offset="0.01" stop-color="#D8B376" />
            <stop offset="0.17" stop-color="#DCB97A" />
            <stop offset="0.39" stop-color="#E9CA86" />
            <stop offset="0.5" stop-color="#F1D58D" />
            <stop offset="0.65" stop-color="#CDA860" />
            <stop offset="0.79" stop-color="#AD8139" />
            <stop offset="0.82" stop-color="#B48941" />
            <stop offset="0.88" stop-color="#C6A058" />
            <stop offset="0.96" stop-color="#E3C47C" />
            <stop offset="0.99" stop-color="#F1D58D" />
        </linearGradient>
        <linearGradient id="paint16_linear_304_43" x1="-85.4809" y1="-333.256" x2="583.034" y2="117.292"
            gradientUnits="userSpaceOnUse">
            <stop offset="0.01" stop-color="#D8B376" />
            <stop offset="0.17" stop-color="#DCB97A" />
            <stop offset="0.39" stop-color="#E9CA86" />
            <stop offset="0.5" stop-color="#F1D58D" />
            <stop offset="0.65" stop-color="#CDA860" />
            <stop offset="0.79" stop-color="#AD8139" />
            <stop offset="0.82" stop-color="#B48941" />
            <stop offset="0.88" stop-color="#C6A058" />
            <stop offset="0.96" stop-color="#E3C47C" />
            <stop offset="0.99" stop-color="#F1D58D" />
        </linearGradient>
        <linearGradient id="paint17_linear_304_43" x1="-75.9308" y1="-347.429" x2="592.584" y2="103.108"
            gradientUnits="userSpaceOnUse">
            <stop offset="0.01" stop-color="#D8B376" />
            <stop offset="0.17" stop-color="#DCB97A" />
            <stop offset="0.39" stop-color="#E9CA86" />
            <stop offset="0.5" stop-color="#F1D58D" />
            <stop offset="0.65" stop-color="#CDA860" />
            <stop offset="0.79" stop-color="#AD8139" />
            <stop offset="0.82" stop-color="#B48941" />
            <stop offset="0.88" stop-color="#C6A058" />
            <stop offset="0.96" stop-color="#E3C47C" />
            <stop offset="0.99" stop-color="#F1D58D" />
        </linearGradient>
        <linearGradient id="paint18_linear_304_43" x1="-69.8404" y1="-356.467" x2="598.676" y2="94.0729"
            gradientUnits="userSpaceOnUse">
            <stop offset="0.01" stop-color="#D8B376" />
            <stop offset="0.17" stop-color="#DCB97A" />
            <stop offset="0.39" stop-color="#E9CA86" />
            <stop offset="0.5" stop-color="#F1D58D" />
            <stop offset="0.65" stop-color="#CDA860" />
            <stop offset="0.79" stop-color="#AD8139" />
            <stop offset="0.82" stop-color="#B48941" />
            <stop offset="0.88" stop-color="#C6A058" />
            <stop offset="0.96" stop-color="#E3C47C" />
            <stop offset="0.99" stop-color="#F1D58D" />
        </linearGradient>
        <linearGradient id="paint19_linear_304_43" x1="-63.3619" y1="-366.084" x2="605.154" y2="84.4633"
            gradientUnits="userSpaceOnUse">
            <stop offset="0.01" stop-color="#D8B376" />
            <stop offset="0.17" stop-color="#DCB97A" />
            <stop offset="0.39" stop-color="#E9CA86" />
            <stop offset="0.5" stop-color="#F1D58D" />
            <stop offset="0.65" stop-color="#CDA860" />
            <stop offset="0.79" stop-color="#AD8139" />
            <stop offset="0.82" stop-color="#B48941" />
            <stop offset="0.88" stop-color="#C6A058" />
            <stop offset="0.96" stop-color="#E3C47C" />
            <stop offset="0.99" stop-color="#F1D58D" />
        </linearGradient>
        <clipPath id="clip0_304_43">
            <rect width="455" height="19" fill="white" />
        </clipPath>
    </defs>
</svg>